<?xml version="1.0" encoding="utf-8"?>
<!-- Generator: Adobe Illustrator 16.0.0, SVG Export Plug-In . SVG Version: 6.00 Build 0)  -->
<!DOCTYPE svg PUBLIC "-//W3C//DTD SVG 1.1//EN" "http://www.w3.org/Graphics/SVG/1.1/DTD/svg11.dtd">
<svg version="1.1" id="Layer_1" xmlns="http://www.w3.org/2000/svg" xmlns:xlink="http://www.w3.org/1999/xlink" x="0px" y="0px"
	 width="127.835px" height="20.997px" viewBox="0 0.847 127.835 20.997" enable-background="new 0 0.847 127.835 20.997"
	 xml:space="preserve">
<path fill="#00C6D2" d="M12.983,7.632c-0.248-0.248-0.581-0.385-0.928-0.385c-0.477,0.001-1.095,0-1.095,0s-0.945,0-1.572,0
	c-0.35,0-0.685,0.141-0.932,0.387l-4.482,4.483c-0.304,0.303-0.475,0.714-0.475,1.141c0,0.43,0.169,0.841,0.475,1.143l5.261,5.26
	c0.819,0.821,2.15,0.821,2.971,0l5.479-5.478c0.511-0.511,0.511-1.339,0-1.851L12.983,7.632z"/>
<path fill="#FFFFFF" d="M8.097,5.376c0.516,0.514,0.516,1.349,0,1.864l-4.718,4.719c-0.247,0.246-0.578,0.383-0.924,0.383
	c-0.348,0-0.679-0.137-0.923-0.382l-1.145-1.146C0.139,10.566-0.001,10.229,0,9.878c0-0.352,0.139-0.69,0.389-0.938l4.679-4.677
	c0.254-0.254,0.598-0.397,0.958-0.397S6.73,4.009,6.984,4.263L8.097,5.376z"/>
<path fill="#FFFFFF" d="M6.964,9.125l1.878,1.878l0.555-0.555c0.245-0.245,0.578-0.384,0.924-0.384c0.544,0,1.379,0,1.923,0
	c0.346,0,0.679,0.139,0.925,0.384l4.49,4.489c0.42,0.422,0.42,1.104,0,1.524h-0.002c-0.195,0.196-0.461,0.305-0.739,0.305
	s-0.546-0.108-0.741-0.304l-1.064-1.063l-0.188,0.187l1.048,1.048c0.419,0.419,0.419,1.092,0,1.511l0,0
	c-0.413,0.416-1.083,0.416-1.496,0l-1.055-1.057l-0.188,0.188l1.066,1.067c0.193,0.195,0.304,0.461,0.306,0.738
	c0,0.274-0.111,0.543-0.306,0.736l-0.029,0.028c-0.193,0.193-0.459,0.304-0.738,0.307c-0.277-0.003-0.543-0.11-0.738-0.307
	l-1.066-1.064l-0.186,0.188l1.059,1.062c0.411,0.411,0.411,1.077,0,1.486l-0.001,0.002c-0.419,0.42-1.097,0.42-1.517,0l-7.318-7.322
	c-0.517-0.518-0.517-1.358,0-1.875L6.964,9.125L6.964,9.125z"/>
<g>
	<path fill="#00C6D2" d="M14.486,4.233c0.514-0.516,1.349-0.516,1.863,0l4.714,4.713c0.514,0.514,0.514,1.344,0,1.858l-1.124,1.125
		c-0.254,0.254-0.596,0.394-0.953,0.394s-0.7-0.14-0.953-0.394l-4.697-4.695c-0.511-0.511-0.511-1.341,0.001-1.855L14.486,4.233
		L14.486,4.233L14.486,4.233z"/>
	<path fill="#00C6D2" d="M6.79,14.935c0.407-0.408,0.407-1.065,0-1.475l0,0c-0.422-0.422-1.107-0.422-1.53,0l-1.496,1.497
		c-0.412,0.411-0.413,1.077-0.001,1.488l0.015,0.016c0.413,0.411,1.079,0.411,1.49,0L6.79,14.935L6.79,14.935z"/>
	<path fill="#00C6D2" d="M8.461,16.645c0.419-0.418,0.419-1.095,0-1.517l-0.003-0.003c-0.195-0.195-0.463-0.304-0.743-0.304
		s-0.547,0.108-0.742,0.304l-1.516,1.517c-0.413,0.415-0.413,1.083,0,1.497l0.017,0.017c0.194,0.195,0.461,0.306,0.74,0.306
		c0.275,0,0.542-0.11,0.736-0.306L8.461,16.645L8.461,16.645z"/>
	<path fill="#00C6D2" d="M10.156,18.33c0.414-0.418,0.414-1.088,0-1.504l0,0c-0.2-0.199-0.469-0.312-0.751-0.312
		c-0.281,0-0.551,0.112-0.75,0.312l-1.503,1.502c-0.414,0.416-0.414,1.09,0,1.506v0.002c0.416,0.414,1.084,0.414,1.5,0L10.156,18.33
		L10.156,18.33z"/>
	<path fill="#00C6D2" d="M11.861,20.008c0.408-0.411,0.408-1.068,0-1.478l-0.001-0.001c-0.203-0.203-0.476-0.316-0.762-0.316
		c-0.289,0-0.561,0.113-0.764,0.316l-1.494,1.495c-0.414,0.413-0.414,1.083,0,1.496l0.019,0.019c0.405,0.406,1.066,0.406,1.474,0
		L11.861,20.008z"/>
	<path fill="#00C6D2" d="M9.883,9.964c0.197-0.198,0.309-0.466,0.309-0.745C10.19,8.94,10.079,8.672,9.883,8.476L9.509,8.103
		c-0.422-0.42-1.102-0.42-1.522-0.002L6.784,9.305c-0.201,0.203-0.315,0.475-0.315,0.762c0,0.286,0.114,0.556,0.315,0.759
		l0.384,0.384c0.405,0.407,1.062,0.407,1.467,0L9.883,9.964z"/>
</g>
<g transform="matrix(0.930686,0,0,1,-8.60726,3.52475)">
	<path fill="#FFFFFF" d="M41.773,15.848L39.158,4.891h2.264l1.652,7.527l2.003-7.527h2.631l1.921,7.652l1.681-7.652h2.227
		l-2.661,10.958h-2.346l-2.181-8.191l-2.176,8.191L41.773,15.848L41.773,15.848z"/>
	<path fill="#FFFFFF" d="M54.672,15.848V4.891h2.212v4.312h4.336V4.891h2.212v10.958H61.22v-4.791h-4.336v4.791L54.672,15.848
		L54.672,15.848z"/>
	<path fill="#FFFFFF" d="M65.718,15.848V4.891h8.125v1.854H67.93v2.43h5.501v1.846H67.93v2.982h6.123v1.846H65.718z"/>
	<path fill="#FFFFFF" d="M75.936,15.848V4.891h4.655c1.171,0,2.023,0.1,2.553,0.296c0.531,0.197,0.956,0.547,1.275,1.05
		c0.319,0.504,0.477,1.079,0.477,1.727c0,0.822-0.24,1.5-0.725,2.035c-0.483,0.537-1.205,0.875-2.167,1.014
		c0.478,0.279,0.872,0.587,1.184,0.921c0.313,0.334,0.732,0.928,1.26,1.778l1.337,2.138h-2.644l-1.6-2.386
		c-0.567-0.852-0.956-1.389-1.165-1.61c-0.21-0.222-0.432-0.373-0.665-0.455c-0.235-0.082-0.605-0.123-1.113-0.123h-0.449v4.574
		L75.936,15.848L75.936,15.848z M78.146,9.526h1.637c1.062,0,1.724-0.045,1.988-0.135c0.264-0.092,0.47-0.246,0.619-0.463
		c0.15-0.221,0.225-0.494,0.225-0.824c0-0.367-0.098-0.665-0.294-0.892c-0.197-0.227-0.473-0.369-0.834-0.43
		c-0.178-0.025-0.717-0.037-1.614-0.037h-1.727V9.526L78.146,9.526z"/>
	<path fill="#FFFFFF" d="M86.98,15.848V4.891h8.125v1.854h-5.913v2.43h5.501v1.846h-5.501v2.982h6.123v1.846H86.98z"/>
</g>
<g transform="matrix(0.910165,0,0,1,41.8699,3.52475)">
	<path fill="#FFFFFF" d="M55.453,15.848V4.891h2.211v4.312H62V4.891h2.211v10.958H62v-4.791h-4.336v4.791L55.453,15.848
		L55.453,15.848z"/>
	<path fill="#FFFFFF" d="M66.5,15.848V4.891h8.123v1.854h-5.912v2.43h5.501v1.846h-5.501v2.982h6.121v1.846H66.5z"/>
	<path fill="#FFFFFF" d="M76.768,15.848V4.982h2.212v9.021h5.502v1.847L76.768,15.848L76.768,15.848z"/>
	<path fill="#FFFFFF" d="M86.058,15.848V4.891h3.549c1.348,0,2.222,0.055,2.632,0.165c0.628,0.165,1.152,0.522,1.576,1.073
		c0.424,0.551,0.635,1.262,0.635,2.133c0,0.673-0.122,1.238-0.366,1.697c-0.246,0.457-0.556,0.818-0.931,1.08
		c-0.374,0.262-0.758,0.435-1.146,0.521c-0.529,0.104-1.294,0.155-2.296,0.155h-1.442v4.134L86.058,15.848L86.058,15.848z
		 M88.27,6.745v3.109h1.21c0.872,0,1.455-0.057,1.751-0.172c0.292-0.115,0.524-0.295,0.691-0.539
		c0.165-0.244,0.249-0.527,0.249-0.852c0-0.398-0.116-0.728-0.352-0.987c-0.233-0.26-0.53-0.422-0.888-0.486
		c-0.264-0.049-0.794-0.074-1.593-0.074H88.27z"/>
</g>
<g transform="matrix(1.34131,0,0,1.35855,-26.755,-1.65836)">
	<path fill="#00C6D2" d="M87.399,15.481v-1.561h-4.087V13.89l0.871-0.75c1.729-1.607,2.984-3.016,2.984-4.76
		c0-1.623-1.071-3.015-3.275-3.015c-1.255,0-2.342,0.444-3.062,1.025l0.552,1.33c0.505-0.382,1.255-0.826,2.127-0.826
		c1.301,0,1.776,0.781,1.776,1.668c-0.015,1.317-1.118,2.511-3.459,4.684l-1.179,1.087v1.149h6.751V15.481z"/>
</g>
</svg>
