<svg xmlns="http://www.w3.org/2000/svg" width="127.835" height="20.997"><path fill="#00C6D2" d="M12.983 7.632a1.31 1.31 0 0 0-.928-.385H10.96 9.388c-.35 0-.685.141-.932.387l-4.482 4.483a1.612 1.612 0 0 0 0 2.284l5.261 5.26a2.1 2.1 0 0 0 2.971 0l5.479-5.478a1.31 1.31 0 0 0 0-1.851l-4.702-4.7z"/><path fill="#FFF" d="M8.097 5.376a1.316 1.316 0 0 1 0 1.864l-4.718 4.719a1.307 1.307 0 0 1-1.847.001L.387 10.814A1.32 1.32 0 0 1 0 9.878c0-.352.139-.69.389-.938l4.679-4.677a1.354 1.354 0 0 1 1.916 0l1.113 1.113zM6.964 9.125l1.878 1.878.555-.555a1.31 1.31 0 0 1 .924-.384h1.923c.346 0 .679.139.925.384l4.49 4.489a1.08 1.08 0 0 1 0 1.524h-.002c-.195.196-.461.305-.739.305s-.546-.108-.741-.304l-1.064-1.063-.188.187 1.048 1.048a1.065 1.065 0 0 1 0 1.511 1.053 1.053 0 0 1-1.496 0l-1.055-1.057-.188.188 1.066 1.067a1.043 1.043 0 0 1 0 1.474l-.029.028a1.06 1.06 0 0 1-.738.307 1.05 1.05 0 0 1-.738-.307l-1.066-1.064-.186.188 1.059 1.062a1.05 1.05 0 0 1 0 1.486l-.001.002a1.07 1.07 0 0 1-1.517 0l-7.318-7.322a1.327 1.327 0 0 1 0-1.875l3.198-3.197z"/><g fill="#00C6D2"><path d="M14.486 4.233a1.315 1.315 0 0 1 1.863 0l4.714 4.713a1.312 1.312 0 0 1 0 1.858l-1.124 1.125c-.254.254-.596.394-.953.394s-.7-.14-.953-.394l-4.697-4.695a1.313 1.313 0 0 1 .001-1.855l1.149-1.146zM6.79 14.935a1.044 1.044 0 0 0 0-1.475 1.083 1.083 0 0 0-1.53 0l-1.496 1.497a1.05 1.05 0 0 0-.001 1.488l.015.016a1.054 1.054 0 0 0 1.49 0l1.522-1.526zM8.461 16.645a1.073 1.073 0 0 0 0-1.517l-.003-.003c-.195-.195-.463-.304-.743-.304s-.547.108-.742.304l-1.516 1.517a1.06 1.06 0 0 0 0 1.497l.017.017a1.045 1.045 0 0 0 1.476 0l1.511-1.511zM10.156 18.33a1.065 1.065 0 1 0-.751-1.816c-.281 0-.551.112-.75.312l-1.503 1.502a1.068 1.068 0 0 0 0 1.506v.002a1.061 1.061 0 0 0 1.5 0l1.504-1.506z"/><path d="M11.861 20.008a1.045 1.045 0 0 0 0-1.478l-.001-.001a1.075 1.075 0 0 0-1.526 0L8.84 20.024a1.056 1.056 0 0 0 0 1.496l.019.019a1.044 1.044 0 0 0 1.474 0l1.528-1.531zM9.883 9.964c.197-.198.309-.466.309-.745a1.063 1.063 0 0 0-.309-.743l-.374-.373a1.079 1.079 0 0 0-1.522-.002L6.784 9.305a1.076 1.076 0 0 0 0 1.521l.384.384a1.034 1.034 0 0 0 1.467 0l1.248-1.246z"/></g><g fill="#FFF"><path d="M30.27 19.373L27.837 8.416h2.107l1.537 7.527 1.864-7.527h2.449l1.788 7.652 1.564-7.652h2.073l-2.477 10.958H36.56l-2.03-8.191-2.025 8.19H30.27zM42.275 19.373V8.416h2.059v4.312h4.035V8.416h2.059v10.958h-2.059v-4.791h-4.035v4.79h-2.059zM52.556 19.373V8.416h7.561v1.854h-5.503v2.43h5.12v1.846h-5.12v2.982h5.699v1.846h-7.757zM62.065 19.373V8.416h4.333c1.09 0 1.882.1 2.376.296.494.197.89.547 1.186 1.05.297.504.444 1.079.444 1.727 0 .822-.223 1.5-.674 2.035-.45.537-1.122.875-2.017 1.014.445.279.811.587 1.102.92.291.335.68.929 1.172 1.779l1.245 2.138H68.77l-1.49-2.386c-.527-.852-.889-1.39-1.083-1.61a1.585 1.585 0 0 0-.62-.455c-.218-.082-.562-.123-1.035-.123h-.418v4.574l-2.06-.002zm2.057-6.322h1.524c.988 0 1.604-.045 1.85-.135.246-.092.437-.246.576-.463.14-.221.21-.494.21-.824 0-.367-.092-.665-.274-.892-.184-.227-.44-.37-.776-.43-.166-.025-.668-.037-1.503-.037h-1.607v2.78zM72.344 19.373V8.416h7.562v1.854h-5.504v2.43h5.12v1.846h-5.12v2.982h5.7v1.846h-7.758z"/></g><g fill="#FFF"><path d="M92.341 19.373V8.416h2.013v4.312H98.3V8.416h2.013v10.958H98.3v-4.791h-3.946v4.79H92.34zM102.396 19.373V8.416h7.393v1.854h-5.38v2.43h5.006v1.846h-5.007v2.982h5.571v1.846h-7.583zM111.741 19.373V8.507h2.014v9.02h5.007v1.848l-7.02-.002zM120.197 19.373V8.416h3.23c1.227 0 2.022.055 2.396.165.571.165 1.048.522 1.434 1.073.386.55.578 1.262.578 2.133 0 .673-.111 1.238-.333 1.697-.224.457-.506.818-.847 1.08-.34.262-.69.435-1.044.52-.481.105-1.177.156-2.09.156h-1.312v4.134l-2.012-.001zm2.013-9.103v3.109h1.101c.794 0 1.325-.057 1.594-.172.266-.115.477-.295.63-.54a1.59 1.59 0 0 0 .226-.851c0-.398-.106-.728-.32-.987a1.35 1.35 0 0 0-.809-.486c-.24-.05-.723-.074-1.45-.074h-.972z"/></g><path fill="#00C6D2" d="M90.474 19.373v-2.12h-5.482v-.041l1.168-1.019c2.32-2.183 4.003-4.097 4.003-6.467 0-2.205-1.437-4.096-4.393-4.096-1.683 0-3.141.603-4.107 1.393l.74 1.807c.678-.52 1.684-1.123 2.853-1.123 1.746 0 2.383 1.062 2.383 2.267-.02 1.789-1.5 3.41-4.64 6.363l-1.581 1.477v1.56h9.055z"/></svg>