<?xml version="1.0" encoding="utf-8"?>
<!-- Generator: Adobe Illustrator 16.0.0, SVG Export Plug-In . SVG Version: 6.00 Build 0)  -->
<!DOCTYPE svg PUBLIC "-//W3C//DTD SVG 1.1//EN" "http://www.w3.org/Graphics/SVG/1.1/DTD/svg11.dtd">
<svg version="1.1" id="Layer_1" xmlns="http://www.w3.org/2000/svg" xmlns:xlink="http://www.w3.org/1999/xlink" x="0px" y="0px"
	 width="122.614px" height="21px" viewBox="0 2 122.614 21" enable-background="new 0 2 122.614 21" xml:space="preserve">
<g>
	<path id="base_light" fill="#17252C" d="M21,23c0,0-5.254,0-10.506,0c-2.784,0-5.453-1.105-7.42-3.073
		C1.106,17.959,0,15.29,0,12.506c0-0.001,0-0.001,0-0.002c0-2.785,1.106-5.457,3.077-7.428C5.046,3.106,7.719,2,10.504,2
		c0.016,0,0.031,0,0.046,0C16.323,2,21,6.678,21,12.449C21,17.717,21,23,21,23z"/>
	<path fill="#00C6D2" d="M11.961,9.666c-0.16-0.16-0.375-0.249-0.599-0.249c-0.308,0.001-0.707,0-0.707,0s-0.611,0-1.016,0
		c-0.226,0-0.442,0.091-0.602,0.25l-2.894,2.895c-0.196,0.196-0.307,0.462-0.307,0.737c0,0.277,0.11,0.543,0.307,0.738l3.397,3.397
		c0.53,0.53,1.389,0.53,1.919,0l3.538-3.538c0.33-0.33,0.33-0.865,0-1.195L11.961,9.666z"/>
	<path fill="#FFFFFF" d="M8.806,8.209c0.333,0.332,0.333,0.871,0,1.204L5.759,12.46c-0.159,0.159-0.373,0.247-0.597,0.247
		s-0.438-0.088-0.595-0.246l-0.74-0.74c-0.16-0.16-0.251-0.378-0.25-0.605c0-0.227,0.09-0.445,0.251-0.605l3.022-3.021
		c0.164-0.164,0.386-0.256,0.618-0.256c0.232,0,0.455,0.092,0.619,0.256L8.806,8.209z"/>
	<path fill="#FFFFFF" d="M8.074,10.63l1.213,1.213l0.359-0.359c0.158-0.158,0.373-0.247,0.596-0.247c0.352,0,0.891,0,1.243,0
		c0.223-0.001,0.438,0.089,0.597,0.247l2.9,2.899c0.271,0.272,0.271,0.713,0,0.984h-0.001c-0.126,0.127-0.298,0.198-0.478,0.198
		c-0.18,0-0.352-0.071-0.478-0.197l-0.688-0.687l-0.121,0.121l0.677,0.677c0.27,0.27,0.27,0.705,0,0.975h0
		c-0.267,0.268-0.699,0.268-0.966,0l-0.682-0.682l-0.121,0.121l0.689,0.689c0.125,0.126,0.196,0.298,0.197,0.476
		c0,0.178-0.071,0.351-0.197,0.476l-0.019,0.019c-0.125,0.125-0.297,0.196-0.476,0.198c-0.179-0.002-0.351-0.072-0.477-0.198
		l-0.688-0.688l-0.121,0.122l0.684,0.685c0.266,0.265,0.266,0.695,0,0.96l-0.001,0.001c-0.27,0.271-0.708,0.271-0.979,0L6.01,13.904
		c-0.334-0.334-0.334-0.876,0-1.211L8.074,10.63L8.074,10.63z"/>
	<g>
		<path fill="#00C6D2" d="M12.932,7.471c0.332-0.333,0.871-0.333,1.203,0l3.044,3.044c0.332,0.332,0.332,0.868,0,1.2l-0.726,0.726
			c-0.164,0.164-0.384,0.255-0.615,0.255c-0.23,0-0.452-0.091-0.615-0.255L12.19,9.409c-0.33-0.33-0.33-0.866,0.001-1.198
			L12.932,7.471L12.932,7.471L12.932,7.471z"/>
		<path fill="#00C6D2" d="M7.962,14.382c0.263-0.264,0.263-0.688,0-0.952l0-0.001c-0.272-0.272-0.715-0.272-0.988,0l-0.966,0.967
			c-0.266,0.266-0.267,0.696-0.001,0.961l0.01,0.01c0.266,0.266,0.696,0.266,0.962,0L7.962,14.382L7.962,14.382z"/>
		<path fill="#00C6D2" d="M9.041,15.486c0.271-0.27,0.271-0.707,0-0.979l-0.002-0.002c-0.126-0.126-0.299-0.197-0.479-0.197
			c-0.181,0-0.354,0.071-0.48,0.197l-0.978,0.979c-0.267,0.268-0.267,0.7,0,0.967l0.011,0.011c0.125,0.126,0.297,0.197,0.477,0.197
			c0.178,0,0.35-0.071,0.476-0.197L9.041,15.486L9.041,15.486z"/>
		<path fill="#00C6D2" d="M10.136,16.574c0.268-0.269,0.268-0.702,0-0.97v-0.001c-0.129-0.128-0.303-0.201-0.485-0.2
			c-0.182-0.001-0.356,0.072-0.485,0.2l-0.97,0.97c-0.268,0.269-0.268,0.704,0,0.973l0,0.001c0.268,0.268,0.7,0.268,0.968,0
			L10.136,16.574L10.136,16.574z"/>
		<path fill="#00C6D2" d="M11.237,17.658c0.263-0.265,0.263-0.69,0-0.954l-0.001-0.001c-0.131-0.131-0.308-0.204-0.493-0.204
			c-0.186,0-0.362,0.073-0.493,0.204l-0.965,0.966c-0.267,0.266-0.267,0.699,0,0.966l0.012,0.012
			c0.262,0.262,0.689,0.262,0.952-0.001L11.237,17.658z"/>
		<path fill="#00C6D2" d="M9.959,11.172c0.127-0.128,0.199-0.301,0.199-0.481c-0.001-0.18-0.072-0.353-0.199-0.48L9.718,9.97
			C9.446,9.698,9.006,9.698,8.735,9.969l-0.777,0.777c-0.13,0.131-0.203,0.307-0.203,0.492s0.073,0.36,0.203,0.491l0.248,0.248
			c0.262,0.262,0.686,0.262,0.948,0L9.959,11.172z"/>
	</g>
</g>
<g transform="matrix(0.930686,0,0,1,-8.60726,3.52475)">
	<path fill="#17252C" d="M36.163,15.848L33.547,4.891h2.264l1.652,7.528l2.003-7.528h2.631l1.921,7.653l1.681-7.653h2.227
		l-2.661,10.958h-2.347l-2.181-8.191l-2.176,8.191H36.163z"/>
	<path fill="#17252C" d="M49.062,15.848V4.891h2.212v4.313h4.335V4.891h2.212v10.958h-2.212v-4.791h-4.335v4.791H49.062z"/>
	<path fill="#17252C" d="M60.108,15.848V4.891h8.124v1.854h-5.912v2.429h5.501v1.846h-5.501v2.982h6.122v1.846H60.108z"/>
	<path fill="#17252C" d="M70.326,15.848V4.891h4.655c1.171,0,2.022,0.1,2.552,0.296c0.531,0.197,0.956,0.547,1.275,1.05
		c0.319,0.504,0.478,1.079,0.478,1.727c0,0.822-0.241,1.5-0.725,2.035c-0.483,0.537-1.205,0.875-2.167,1.014
		c0.478,0.279,0.872,0.586,1.184,0.92s0.732,0.928,1.26,1.779l1.337,2.137h-2.645l-1.6-2.385c-0.567-0.852-0.956-1.389-1.165-1.611
		c-0.21-0.221-0.432-0.373-0.665-0.455c-0.235-0.082-0.605-0.123-1.113-0.123h-0.449v4.574H70.326z M72.536,9.526h1.637
		c1.061,0,1.724-0.045,1.988-0.135c0.264-0.092,0.47-0.246,0.619-0.463c0.15-0.221,0.225-0.494,0.225-0.824
		c0-0.367-0.098-0.665-0.294-0.892c-0.197-0.227-0.474-0.369-0.834-0.43c-0.179-0.025-0.717-0.037-1.614-0.037h-1.727V9.526z"/>
	<path fill="#17252C" d="M81.37,15.848V4.891h8.124v1.854h-5.912v2.429h5.501v1.846h-5.501v2.982h6.122v1.846H81.37z"/>
</g>
<g transform="matrix(0.910165,0,0,1,41.8699,3.52475)">
	<path fill="#17252C" d="M49.716,15.848V4.891h2.211v4.313h4.336V4.891h2.211v10.958h-2.211v-4.791h-4.336v4.791H49.716z"/>
	<path fill="#17252C" d="M60.763,15.848V4.891h8.123v1.854h-5.912v2.429h5.501v1.846h-5.501v2.982h6.121v1.846H60.763z"/>
	<path fill="#17252C" d="M71.031,15.848V4.982h2.212v9.021h5.502v1.846H71.031z"/>
	<path fill="#17252C" d="M80.321,15.848V4.891h3.549c1.347,0,2.222,0.055,2.632,0.165c0.627,0.165,1.152,0.523,1.576,1.073
		c0.424,0.551,0.635,1.262,0.635,2.134c0,0.672-0.122,1.238-0.366,1.697c-0.245,0.457-0.556,0.818-0.931,1.08
		c-0.375,0.262-0.758,0.434-1.146,0.52c-0.529,0.104-1.294,0.156-2.296,0.156h-1.442v4.133H80.321z M82.533,6.745v3.109h1.21
		c0.873,0,1.455-0.057,1.751-0.172c0.292-0.115,0.524-0.295,0.691-0.539c0.165-0.244,0.249-0.527,0.249-0.852
		c0-0.398-0.116-0.727-0.352-0.986c-0.233-0.26-0.53-0.422-0.888-0.486C84.93,6.77,84.4,6.745,83.601,6.745H82.533z"/>
</g>
<g transform="matrix(1.34131,0,0,1.35855,-26.755,-1.65836)">
	<path fill="#00C6D2" d="M83.506,15.481v-1.561h-4.087v-0.03l0.872-0.75c1.729-1.607,2.984-3.016,2.984-4.76
		c0-1.623-1.071-3.015-3.275-3.015c-1.255,0-2.342,0.444-3.062,1.025L77.49,7.72c0.505-0.382,1.255-0.826,2.127-0.826
		c1.301,0,1.776,0.781,1.776,1.668c-0.015,1.317-1.118,2.511-3.459,4.684l-1.179,1.087v1.149H83.506z"/>
</g>
</svg>
