<?xml version="1.0" standalone="no"?>
<!DOCTYPE svg PUBLIC "-//W3C//DTD SVG 20010904//EN"
 "http://www.w3.org/TR/2001/REC-SVG-20010904/DTD/svg10.dtd">
<svg version="1.0" xmlns="http://www.w3.org/2000/svg"
 width="700.000000pt" height="700.000000pt" viewBox="0 0 700.000000 700.000000"
 preserveAspectRatio="xMidYMid meet">
<metadata>
Created by potrace 1.11, written by Peter Selinger 2001-2013
</metadata>
<g transform="translate(0.000000,700.000000) scale(0.100000,-0.100000)"
fill="#000000" stroke="none">
<path d="M3248 6785 c-2 -1 -41 -5 -88 -9 -47 -4 -96 -8 -110 -10 -14 -2 -47
-7 -75 -11 -62 -8 -113 -16 -134 -20 -219 -45 -288 -63 -475 -127 -212 -72
-497 -204 -624 -289 -24 -16 -45 -29 -49 -29 -10 0 -227 -152 -298 -208 -167
-134 -340 -302 -472 -457 -75 -88 -226 -289 -249 -330 -6 -11 -37 -62 -68
-113 -198 -325 -349 -727 -416 -1105 -32 -186 -34 -204 -46 -387 -10 -166 -5
-467 10 -548 2 -9 7 -44 11 -77 6 -53 25 -172 40 -245 3 -14 7 -35 9 -47 20
-99 113 -406 146 -478 5 -11 28 -65 51 -120 183 -431 481 -840 849 -1165 481
-426 1111 -711 1760 -795 25 -3 63 -9 85 -12 22 -4 848 -8 1836 -10 l1796 -4
-2 1783 c-2 981 -5 1797 -8 1813 -3 17 -8 61 -12 98 -3 37 -8 76 -10 87 -2 10
-7 40 -10 67 -16 111 -76 355 -119 485 -194 588 -540 1099 -1021 1508 -112 95
-361 266 -500 343 -229 127 -608 278 -781 311 -11 2 -39 9 -64 16 -25 7 -54
14 -65 16 -11 2 -31 6 -45 9 -60 12 -147 27 -170 29 -14 2 -45 6 -70 9 -100
15 -185 19 -392 22 -119 1 -218 1 -220 0z"/>
</g>
</svg>
