<?xml version="1.0" encoding="utf-8"?>
<!-- Generator: Adobe Illustrator 24.0.2, SVG Export Plug-In . SVG Version: 6.00 Build 0)  -->
<svg version="1.1" id="Ebene_1" xmlns="http://www.w3.org/2000/svg" xmlns:xlink="http://www.w3.org/1999/xlink" x="0px" y="0px"
	 viewBox="0 0 697.7 207.1" style="enable-background:new 0 0 697.7 207.1;" xml:space="preserve">
<style type="text/css">
	.st0{fill:#9D9D9C;}
</style>
<g id="Logo">
	<rect x="443.8" y="14.3" class="st0" width="2.4" height="178.5"/>
	<g>
		<g>
			<path class="st0" d="M487.3,33.5V14.4h-20.6c0,6.7,0.5,13.1,1.4,19.2C468.2,33.5,487.3,33.5,487.3,33.5z"/>
			<path class="st0" d="M487.3,39.5h-18c3.5,16.4,10.1,28.5,18,31.1V39.5z"/>
		</g>
		<g>
			<path class="st0" d="M493.4,33.5V14.4h20.6c0,6.7-0.5,13.1-1.4,19.2C512.5,33.5,493.4,33.5,493.4,33.5z"/>
			<path class="st0" d="M493.4,39.5h18c-3.5,16.4-10.1,28.5-18,31.1V39.5z"/>
		</g>
	</g>
	<g>
		<path class="st0" d="M534.5,36.5V14.4h13.4v3.9h-9.1v5.7h7.2v3.8h-7.2v8.9L534.5,36.5L534.5,36.5z"/>
		<path class="st0" d="M556.5,36.9c-2.2,0-3.9-0.6-5.2-1.9s-1.8-3.1-1.8-5.4v-8h4.1v8c0,1.1,0.2,2,0.8,2.6s1.2,0.9,2.1,0.9
			s1.6-0.3,2.1-0.9c0.5-0.6,0.8-1.5,0.8-2.6v-8h4.1v8c0,2.3-0.6,4.1-1.8,5.4C560.5,36.3,558.8,36.9,556.5,36.9z M552.9,19.4
			c-0.8,0-1.3-0.2-1.8-0.7c-0.4-0.4-0.7-1-0.7-1.7s0.2-1.3,0.7-1.7c0.4-0.4,1-0.7,1.8-0.7s1.3,0.2,1.8,0.7c0.4,0.4,0.7,1,0.7,1.7
			s-0.2,1.3-0.7,1.7C554.3,19.2,553.7,19.4,552.9,19.4z M560.2,19.4c-0.8,0-1.3-0.2-1.8-0.7c-0.4-0.4-0.7-1-0.7-1.7s0.2-1.3,0.7-1.7
			c0.4-0.4,1-0.7,1.8-0.7s1.3,0.2,1.8,0.7c0.4,0.4,0.7,1,0.7,1.7s-0.2,1.3-0.7,1.7C561.5,19.2,560.9,19.4,560.2,19.4z"/>
		<path class="st0" d="M567.2,36.5V21.7h3.8v2.7h0.2c0.3-1,0.8-1.7,1.5-2.3s1.6-0.8,2.6-0.8c0.6,0,1.1,0.1,1.5,0.4v4.1h-0.2
			c-0.3-0.1-0.5-0.2-0.9-0.3c-0.3-0.1-0.6-0.1-0.9-0.1c-1.1,0-2,0.4-2.6,1.2c-0.6,0.8-0.9,1.9-0.9,3.2v6.7L567.2,36.5L567.2,36.5z"
			/>
		<path class="st0" d="M596.6,36.5v-2.2h-0.2c-0.4,0.8-1.1,1.5-1.9,1.9s-1.8,0.7-2.9,0.7c-1.3,0-2.5-0.3-3.5-1
			c-1-0.7-1.8-1.6-2.3-2.7s-0.8-2.5-0.8-4.1s0.3-2.9,0.8-4.1s1.3-2.1,2.3-2.7s2.2-1,3.5-1c1,0,1.9,0.2,2.8,0.6
			c0.8,0.4,1.5,1,1.9,1.6h0.2v-9.2h4.1v22.2L596.6,36.5L596.6,36.5z M592.8,33.3c1.1,0,2-0.4,2.7-1.2c0.7-0.8,1-1.8,1-3.1
			c0-1.3-0.3-2.3-1-3.1s-1.6-1.1-2.7-1.1c-1.1,0-2,0.4-2.7,1.1c-0.7,0.8-1,1.8-1,3.1c0,1.3,0.3,2.3,1,3.1
			C590.8,32.9,591.7,33.3,592.8,33.3z"/>
		<path class="st0" d="M606.5,19.3c-0.8,0-1.4-0.2-1.9-0.7s-0.7-1.1-0.7-1.8c0-0.8,0.2-1.4,0.7-1.8s1.1-0.7,1.9-0.7
			c0.8,0,1.5,0.2,1.9,0.7s0.7,1.1,0.7,1.8c0,0.7-0.2,1.3-0.7,1.8S607.3,19.3,606.5,19.3z M604.4,36.5V21.7h4.1v14.9H604.4z"/>
		<path class="st0" d="M619.4,36.9c-1.6,0-3-0.3-4.2-1s-2.1-1.5-2.7-2.7s-1-2.5-1-4.1c0-1.6,0.3-3,1-4.2c0.7-1.2,1.6-2.1,2.7-2.7
			c1.2-0.6,2.5-1,4-1c2.2,0,3.9,0.7,5.1,2s1.8,3.2,1.8,5.6v0.9l-10.2,1.1c0.3,0.9,0.8,1.5,1.5,1.9c0.7,0.4,1.6,0.6,2.6,0.6
			c1,0,1.9-0.1,2.9-0.4c1-0.3,1.7-0.5,2.2-0.9h0.2l-0.6,3.5c-0.5,0.3-1.3,0.6-2.3,0.8S620.4,36.9,619.4,36.9z M619.1,24.6
			c-0.9,0-1.7,0.3-2.3,0.8s-1,1.4-1.1,2.5l6.3-0.7c-0.1-0.9-0.5-1.6-1-2C620.6,24.8,619.9,24.6,619.1,24.6z"/>
		<path class="st0" d="M539.7,70.4c-1.1,0-2.2-0.2-3.2-0.5s-2-0.8-3-1.4l0.6-3.8h0.2c1,0.7,1.9,1.2,2.8,1.5c0.9,0.3,1.8,0.4,2.6,0.4
			c2.3,0,3.4-0.8,3.4-2.5c0-0.6-0.2-1.1-0.5-1.6c-0.3-0.5-0.9-0.9-1.7-1.4l-2.8-1.5c-1.6-0.9-2.7-1.8-3.4-2.8s-1-2.1-1-3.4
			c0-1.9,0.6-3.4,1.9-4.5c1.3-1.1,3-1.7,5.2-1.7c2,0,3.8,0.5,5.4,1.5l-0.6,3.7h-0.2c-0.6-0.4-1.4-0.8-2.2-1
			c-0.8-0.2-1.7-0.3-2.4-0.3c-2,0-3,0.8-3,2.3c0,0.5,0.2,1.1,0.5,1.5c0.3,0.5,1,1,2,1.5l2.4,1.3c1.5,0.8,2.6,1.7,3.3,2.7
			s1,2.2,1,3.6c0,2-0.7,3.7-2.1,4.8S542,70.4,539.7,70.4z"/>
		<path class="st0" d="M558.2,69.8h-4.6c-0.7-1-1.2-2.1-1.6-3.4s-0.5-2.7-0.5-4.3v-3.7h-2.6V55h2.6v-4.4h4.1V55h3.5l-0.6,3.5h-2.9
			v3.4c0,1.7,0.2,3.1,0.7,4.4c0.5,1.2,1.1,2.4,1.9,3.5V69.8z"/>
		<path class="st0" d="M565.1,70.1c-1.4,0-2.6-0.4-3.4-1.2c-0.8-0.8-1.3-1.8-1.3-3.2c0-1.4,0.5-2.5,1.5-3.3s2.3-1.3,4-1.5l4.1-0.4v0
			c0-0.8-0.2-1.4-0.7-1.8c-0.4-0.4-1.3-0.6-2.4-0.6c-0.9,0-1.8,0.1-2.7,0.3c-0.9,0.2-1.7,0.5-2.2,0.7h-0.2l0.6-3.5
			c0.6-0.3,1.4-0.5,2.3-0.7c0.9-0.2,1.9-0.3,2.9-0.3c2.2,0,3.9,0.5,4.9,1.6s1.6,2.6,1.6,4.6v4.7c0,0.8,0,1.5,0.2,2.3
			s0.3,1.4,0.5,1.9v0.2H571c-0.1-0.3-0.2-0.7-0.3-1.1c-0.1-0.4-0.2-0.8-0.2-1.2h-0.2c-0.4,0.7-1,1.3-2,1.8
			C567.4,69.8,566.3,70.1,565.1,70.1z M564.6,65.4c0,0.4,0.1,0.8,0.4,1.1s0.8,0.4,1.4,0.4c1,0,1.9-0.3,2.6-0.9s1-1.4,1-2.4v-0.3
			l-3.1,0.4c-0.8,0.1-1.4,0.2-1.7,0.5C564.8,64.4,564.6,64.8,564.6,65.4z"/>
		<path class="st0" d="M588.8,69.8v-2.2h-0.2c-0.4,0.8-1.1,1.4-1.9,1.9c-0.9,0.5-1.8,0.7-2.9,0.7c-1.3,0-2.5-0.3-3.5-1
			c-1-0.7-1.8-1.6-2.3-2.7c-0.5-1.2-0.8-2.5-0.8-4.1s0.3-2.9,0.8-4.1c0.5-1.2,1.3-2.1,2.3-2.7s2.2-1,3.5-1c1,0,1.9,0.2,2.8,0.6
			s1.5,1,1.9,1.6h0.2v-9.2h4.1v22.2H588.8z M585,66.6c1.1,0,2-0.4,2.7-1.2s1-1.8,1-3.1c0-1.3-0.3-2.3-1-3.1
			c-0.7-0.8-1.6-1.1-2.7-1.1c-1.1,0-2,0.4-2.7,1.1c-0.7,0.8-1,1.8-1,3.1c0,1.3,0.3,2.3,1,3.1C583,66.2,583.9,66.6,585,66.6z"/>
		<path class="st0" d="M604.4,69.8h-4.6c-0.7-1-1.2-2.1-1.6-3.4c-0.4-1.3-0.5-2.7-0.5-4.3v-3.7h-2.6V55h2.6v-4.4h4.1V55h3.5
			l-0.6,3.5h-2.9v3.4c0,1.7,0.2,3.1,0.7,4.4c0.5,1.2,1.1,2.4,1.9,3.5V69.8z"/>
		<path class="st0" d="M623.2,69.8h-5c-0.5-1.1-1-2.5-1.6-4.1s-1.1-3.4-1.7-5.4c-0.5-2-1-4.1-1.4-6.2c-0.4-2.2-0.7-4.3-0.8-6.4h4.5
			c0.2,2,0.4,4,0.8,6.2s0.8,4.2,1.3,6.2s1,3.9,1.5,5.6h0.2l4.5-15h3.3l4.5,15h0.2c0.5-1.7,1-3.6,1.5-5.6s0.9-4.1,1.2-6.2
			s0.6-4.2,0.8-6.2h4.4c-0.2,2.1-0.4,4.3-0.8,6.4s-0.9,4.2-1.4,6.2c-0.5,2-1.1,3.8-1.7,5.4s-1.1,3-1.6,4.1h-5l-3.8-12.5H627
			L623.2,69.8z"/>
		<path class="st0" d="M646.6,52.5c-0.8,0-1.4-0.2-1.9-0.7s-0.7-1.1-0.7-1.8c0-0.8,0.2-1.4,0.7-1.8s1.1-0.7,1.9-0.7
			c0.8,0,1.5,0.2,1.9,0.7s0.7,1.1,0.7,1.8c0,0.7-0.2,1.3-0.7,1.8S647.4,52.5,646.6,52.5z M644.5,69.8V55h4.1v14.9L644.5,69.8
			L644.5,69.8z"/>
		<path class="st0" d="M659.5,70.2c-1.6,0-3-0.3-4.2-0.9s-2.1-1.5-2.7-2.7s-1-2.5-1-4.1c0-1.6,0.3-3,1-4.2c0.7-1.2,1.6-2.1,2.7-2.7
			c1.2-0.6,2.5-1,4-1c2.2,0,3.9,0.7,5.1,2s1.8,3.2,1.8,5.6v0.9L656,64.2c0.3,0.9,0.8,1.6,1.5,1.9c0.7,0.4,1.6,0.6,2.6,0.6
			c1,0,1.9-0.1,2.9-0.4c1-0.3,1.7-0.5,2.2-0.9h0.2l-0.6,3.6c-0.5,0.3-1.3,0.6-2.3,0.8S660.5,70.2,659.5,70.2z M659.2,57.9
			c-0.9,0-1.7,0.3-2.3,0.8s-1,1.4-1.1,2.5l6.3-0.7c-0.1-0.9-0.5-1.6-1-2C660.7,58.1,660,57.9,659.2,57.9z"/>
		<path class="st0" d="M669.2,69.8V55h3.8v2.5h0.2c0.4-0.9,1-1.6,1.8-2.1c0.9-0.5,1.9-0.8,3-0.8c1.7,0,3.1,0.6,4.1,1.7
			c1,1.2,1.5,2.8,1.5,4.8v8.7h-4.1v-8.2c0-2.3-1-3.5-2.9-3.5c-1,0-1.8,0.3-2.3,1c-0.6,0.7-0.9,1.6-0.9,2.8v7.9L669.2,69.8
			L669.2,69.8z"/>
	</g>
</g>
<g id="Submarke_Logobereich">
</g>
<g id="Anweisung">
	<g>
		<path class="st0" d="M107.8,84.1c-3.9,0-8.3-0.8-11.2-1.9c-1.1-0.4-1.5-1.5-1.3-2.6l0.8-3.5c0.2-1.1,1.6-1.8,2.7-1.3
			c2.6,0.8,5.7,1.8,8.7,1.8c3.7,0,6.2-1.4,6.2-4.3c0-3-2.6-4.4-6.3-5.9l-3.6-1.4c-4.3-1.8-8-4.6-8-10.6c0-6.8,5.3-11.7,13.8-11.7
			c3.3,0,6.8,0.7,9.2,1.5c1.1,0.4,1.3,1.6,1.1,2.6l-0.7,3.1c-0.2,1.1-1.1,1.8-2.4,1.3c-2.4-0.8-4.3-1.3-6.9-1.3
			c-3.5,0-5.2,1.5-5.2,4c0,2.3,2.5,3.3,4.3,4.1l5.8,2.5c4.3,1.8,8,5.1,8,11.2C122.7,79.4,116.8,84.1,107.8,84.1z"/>
		<path class="st0" d="M146.7,84.1c-10.9,0-16.4-7-16.4-20.5c0-13.2,5.5-21,16.4-21c10.7,0,16.3,7.2,16.3,21
			C163,76.8,157.7,84.1,146.7,84.1z M146.6,49.7c-5.8,0-7,5.7-7,13.7c0,9.4,1.8,13.6,7,13.6c5.5,0,7.1-4.6,7.1-13.6
			C153.8,55,152.3,49.7,146.6,49.7z"/>
		<path class="st0" d="M197.1,83.7h-23.6c-1.2,0-2.3-0.8-2.3-2.1v-3.3c0-1.1,0.3-1.9,0.9-2.8l13.9-21.2c1-1.4,2.3-2.7,3.6-3.8
			c-1.1,0.2-2.4,0.5-3.6,0.5h-11.7c-1.2,0-2.3-1-2.3-2.3v-3.3c0-1.3,1.1-2.1,2.3-2.1h22.4c1.2,0,2.3,0.8,2.3,2.1v2.9
			c0,1.2-0.4,2.1-1,2.9l-14,21.4c-1,1.5-1.9,2.6-2.7,3.5c0.9-0.1,1.7-0.1,2.8-0.1H197c1.2,0,2.3,1,2.3,2.3v3.4
			C199.4,82.8,198.3,83.7,197.1,83.7z"/>
		<path class="st0" d="M273.4,83.7h-5.1c-1.2,0-2.4-0.6-2.8-1.8l-2.3-7.5h-12.4l-2.1,7.5c-0.3,1.2-1.6,1.8-2.8,1.8h-4.8
			c-1.7,0-2.3-1.3-1.9-2.7L251,44.9c0.4-1.2,1.6-1.8,2.7-1.8h6.6c1.1,0,2.4,0.6,2.8,1.8l12.4,36C275.9,82.2,275.1,83.7,273.4,83.7z
			 M257.8,53.8c-0.2-1-0.6-3.5-0.9-5.1c-0.2,1.6-0.6,4.1-0.8,5l-3.3,13.1h8.3L257.8,53.8z"/>
		<path class="st0" d="M306.5,83.7h-19.4c-1.2,0-2.3-0.8-2.3-2.1V45.2c0-1.3,1.1-2.1,2.3-2.1h4.3c1.2,0,2.4,0.8,2.4,2.1v30.5h12.6
			c1.2,0,2.3,0.8,2.3,2.1v3.6C308.8,82.8,307.7,83.7,306.5,83.7z"/>
		<path class="st0" d="M341.4,83.7h-20.9c-1.2,0-2.3-0.8-2.3-2.1V45.2c0-1.3,1.1-2.1,2.3-2.1h20.2c1.2,0,2.3,0.8,2.3,2.1v3.3
			c0,1.3-1.1,2.3-2.3,2.3h-13.4v7.9h11.9c1.2,0,2.3,0.8,2.3,2.2v3c0,1.3-1.1,2.1-2.3,2.1h-11.9v9.8h13.9c1.2,0,2.4,1,2.4,2.3v3.6
			C343.7,82.8,342.6,83.7,341.4,83.7z"/>
		<path class="st0" d="M229.1,75.8H225V50.7h4.1c1.2,0,2.3-0.9,2.3-2.3v-3.3c0-1.3-1.1-2.1-2.3-2.1h-6.4h-4.5h-6.5
			c-1.2,0-2.3,0.8-2.3,2.1v3.5c0,1.3,1.2,2.3,2.4,2.3h4.1v25h-4.1c-1.2,0-2.3,1-2.3,2.3v3.3c0,1.3,1.1,2.1,2.3,2.1h6.4h4.5h6.5
			c1.2,0,2.3-0.8,2.3-2.1V78C231.5,76.7,230.3,75.8,229.1,75.8z"/>
		<path class="st0" d="M364.8,84.1c-3.9,0-8.3-0.8-11.2-1.9c-1.1-0.4-1.5-1.5-1.3-2.6l0.8-3.5c0.2-1.1,1.6-1.8,2.7-1.3
			c2.6,0.8,5.7,1.8,8.7,1.8c3.7,0,6.2-1.4,6.2-4.3c0-3-2.6-4.4-6.3-5.9l-3.5-1.4c-4.3-1.8-8-4.6-8-10.6c0-6.8,5.3-11.7,13.8-11.7
			c3.3,0,6.8,0.7,9.2,1.5c1.1,0.4,1.3,1.6,1.1,2.6l-0.7,3.1c-0.2,1.1-1.1,1.8-2.4,1.3c-2.4-0.8-4.3-1.3-6.9-1.3
			c-3.4,0-5.2,1.5-5.2,4c0,2.3,2.5,3.3,4.3,4.1l5.8,2.5c4.3,1.8,8,5.1,8,11.2C379.7,79.4,373.7,84.1,364.8,84.1z"/>
		<path class="st0" d="M167.1,162.8c-0.4,1.6-2.5,2.8-4.1,2.8h-8.2c-1.8,0-3.8-0.7-4.2-2.8l-9.4-42c-0.6-2.6-1.5-10.2-1.9-14.6
			c-0.6,4.2-1.4,11.5-2.1,14.6l-10.3,42c-0.4,1.9-2.3,2.8-4.1,2.8H114c-1.8,0-3.1-0.6-3.5-2.5L96.3,99c-0.4-1.8,0.7-3.3,2.6-3.3h6.5
			c1.8,0,3.1,1.5,3.3,2.9l8.7,43.2c0.6,3.1,1.3,9.9,1.6,14.1c0.4-4.3,1.3-11.1,1.9-14.1l10.9-43.3c0.4-1.6,1.9-2.8,3.6-2.8h8.3
			c1.8,0,3.2,0.8,3.6,2.8l9.9,43.3c0.7,2.9,1.3,10,1.7,13.9c0.6-3.9,1.4-11.1,2.1-14.1l9.3-43.2c0.3-1.5,1.6-2.8,3.5-2.8h5.5
			c1.8,0,3.2,1.6,2.8,3.5L167.1,162.8z"/>
		<path class="st0" d="M298.7,165.6h-35.2c-1.6,0-3.3-1.1-3.3-2.9V98.7c0-1.9,1.8-3.1,3.3-3.1h34.3c1.5,0,3.2,1.1,3.2,3.1v3.8
			c0,1.8-1.3,3.3-3.2,3.3h-26.6v18H295c1.8,0,3.3,1.1,3.3,2.9v3.6c0,1.9-1.6,3.2-3.3,3.2h-23.7v21.7h27.2c1.6,0,3.5,1.3,3.5,3.2v4.2
			C302.1,164.4,300.3,165.6,298.7,165.6z"/>
		<path class="st0" d="M374.3,165.6h-8.2c-1.5,0-2.9-0.7-3.6-2.1l-22.2-44.9c-1.5-3.2-3.8-9-4.7-12.2c0.4,4.1,1.1,9.4,1.1,12.1
			l0.3,44.2c0,1.8-1.9,2.9-3.5,2.9h-4c-1.6,0-3.3-1.1-3.3-2.9V98.6c0-2.1,1.6-2.9,3.3-2.9h8.5c1.6,0,2.9,0.6,3.6,1.9l21.7,44.2
			c1.4,2.8,3.9,9.7,5.3,14.1c-0.7-4.2-1.6-10.7-1.6-13.9l-0.3-43.3c0-1.9,1.9-2.9,3.5-2.9h4c1.5,0,3.3,1,3.3,2.9v64.1
			C377.6,164.4,375.8,165.6,374.3,165.6z"/>
		<path class="st0" d="M230.8,155.4h-7.3v-49.3h7.7c1.9,0,3.2-1.5,3.2-3.3V99c0-1.9-1.6-3.1-3.2-3.1h-10.6h-4.5h-11.4
			c-1.5,0-3.3,1.1-3.3,2.9v4.1c0,1.9,1.8,3.2,3.5,3.2h7.5v49.4h-7.8c-1.9,0-3.2,1.5-3.2,3.3v3.8c0,1.9,1.6,3.1,3.2,3.1h11.5h4.5
			h10.4c1.5,0,3.3-1.1,3.3-2.9v-4.1C234.3,156.6,232.5,155.4,230.8,155.4z"/>
		<g>
			<g>
				<path class="st0" d="M57.9,26.3C45.8,29.7,45.8,46,45.8,64.2v80.3c0,18.3,0,34.6,12.1,37.9v10.7c-31-6.2-38.1-58.7-38.1-88.7
					c0-30.1,7.1-82.5,38.1-88.9V26.3z"/>
			</g>
			<g>
				<path class="st0" d="M384.5,182.5c12.1-3.4,12.1-19.7,12.1-37.9V64.3c0-18.3,0-34.6-12.1-37.9V15.5
					c30.9,6.4,38.1,58.8,38.1,88.9s-7.1,82.5-38.1,88.9V182.5z"/>
			</g>
		</g>
		<g>
			<path class="st0" d="M66.6,153.9v8.4h6v-7.5c0-0.6,0.4-1.1,1-1.1h1.2c0.6,0,1.1,0.5,1.1,1.1v7.5h9.6c0.6,0,1,0.6,1,1.1v1.4
				c0,0.5-0.4,1.1-1,1.1H64.2c-0.6,0-1-0.6-1-1.1v-11c0-0.5,0.4-1.1,1-1.1h1.2C66.1,152.8,66.6,153.2,66.6,153.9z"/>
			<path class="st0" d="M86.5,134c0,5.8-3.7,8.9-11.7,8.9c-7.9,0-11.7-3.1-11.7-8.9c0-5.8,3.8-8.8,11.7-8.8S86.5,128.2,86.5,134z
				 M66.1,134c0,4.4,4.2,5,8.7,5c6.2,0,8.5-1.7,8.5-5c0-3.6-3-5-8.5-5C69.7,129,66.1,130.1,66.1,134z"/>
			<path class="st0" d="M86.3,97.9v2.7c0,0.5-0.2,1-0.7,1.2l-14.8,7.3c-1.1,0.5-3,1.2-4.1,1.6c1.3-0.1,3.1-0.4,4-0.4l14.6-0.1
				c0.6,0,1,0.6,1,1.1v1.3c0,0.5-0.4,1.1-1,1.1h-21c-0.7,0-1-0.6-1-1.1v-2.8c0-0.5,0.2-1,0.6-1.2l14.6-7.1c0.9-0.4,3.2-1.3,4.6-1.8
				c-1.3,0.2-3.6,0.5-4.6,0.5l-14.3,0.1c-0.6,0-1-0.6-1-1.1v-1.3c0-0.5,0.4-1.1,1-1.1h21.1C85.9,96.8,86.3,97.4,86.3,97.9z"/>
			<path class="st0" d="M86.3,77.6V83c0,0.6-0.4,1.1-1,1.1h-21c-0.6,0-1-0.6-1-1.1v-5.2c0-7.1,3.9-10.1,11.3-10.1
				C82.3,67.7,86.3,70.3,86.3,77.6z M67.8,73.5c-1,1-1.3,2.6-1.3,4.3v2.6h16.7v-2.6c0-3.5-0.8-6.2-8.2-6.2
				C70.8,71.6,69,72.2,67.8,73.5z"/>
			<path class="st0" d="M86.5,51.1c0,2.1-0.5,4.5-1,5.9c-0.2,0.6-0.6,0.8-1.1,0.7l-1.4-0.4c-0.5-0.1-0.9-0.6-0.7-1.2
				c0.4-1.3,1-3.2,1-5c0-2.9-1.4-4.5-3.4-4.5c-1.8,0-2.8,1.3-3.6,3.3l-0.7,1.8c-1.1,2.7-2.3,5.6-6.2,5.6c-3.7,0-6.2-2.8-6.2-7.7
				c0-1.6,0.4-3.6,0.7-4.8c0.1-0.4,0.7-0.7,1.2-0.6l1.1,0.3c0.5,0.1,0.8,0.7,0.8,1.1c-0.3,1.2-0.6,2.7-0.6,4c0,2.9,1.1,4,2.9,4
				c1.7,0,2.5-1.5,3.3-3.6c0.6-1.6,1.2-3.5,2.3-4.9c1.1-1.3,2.5-2.3,4.9-2.3C83.4,42.8,86.5,45.6,86.5,51.1z"/>
		</g>
	</g>
</g>
</svg>
