<?xml version="1.0" encoding="utf-8"?>
<!-- Generator: Adobe Illustrator 24.1.0, SVG Export Plug-In . SVG Version: 6.00 Build 0)  -->
<svg version="1.1" id="Ebene_1" xmlns="http://www.w3.org/2000/svg" xmlns:xlink="http://www.w3.org/1999/xlink" x="0px" y="0px"
	 viewBox="0 0 1312.7 256" style="enable-background:new 0 0 1312.7 256;" xml:space="preserve">
<style type="text/css">
	.st0{fill:#C32D3C;}
	.st1{fill:#3C141E;}
	.st2{fill:#FFFFFF;}
</style>
<path class="st0" d="M256,256H127.9c-33.9,0-66.5-13.5-90.5-37.5C13.5,194.5,0,162,0,128.1v0c0-34,13.5-66.5,37.5-90.5
	C61.5,13.5,94.1,0,128.1,0h0.6C199,0,256,57,256,127.4V256z"/>
<path class="st1" d="M157.6,66.7c4.1-4.1,10.6-4,14.7,0l37.1,37.1c4,4,4,10.6,0,14.6c0,0,0,0,0,0l-8.9,8.9c-2,2-4.7,3.1-7.5,3.1
	c-2.8,0-5.5-1.1-7.5-3.1l-37-37c-4-4-4-10.6,0-14.6L157.6,66.7L157.6,66.7z M145.8,93.4c-1.9-1.9-4.6-3-7.3-3c-3.8,0-8.6,0-8.6,0
	s-7.4,0-12.4,0c-2.8,0-5.4,1.1-7.3,3l-35.3,35.3c-2.4,2.4-3.7,5.6-3.7,9c0,3.4,1.3,6.6,3.7,9l41.4,41.4c6.5,6.5,16.9,6.5,23.4,0
	l43.1-43.1c4-4,4-10.5,0-14.6L145.8,93.4L145.8,93.4z"/>
<path class="st2" d="M107.4,75.7c4.1,4.1,4.1,10.6,0,14.7l-37.2,37.2c-1.9,1.9-4.5,3-7.3,3c-2.7,0-5.3-1.1-7.3-3l-9-9
	c-2-2-3.1-4.6-3.1-7.4c0-2.8,1.1-5.4,3.1-7.4l36.8-36.8c2-2,4.7-3.1,7.5-3.1c2.8,0,5.5,1.1,7.5,3.1L107.4,75.7L107.4,75.7z
	 M98.4,105.2l14.8,14.8l4.4-4.4c1.9-1.9,4.5-3,7.3-3c4.3,0,10.9,0,15.1,0c2.7,0,5.3,1.1,7.3,3l35.3,35.3c3.3,3.3,3.3,8.7,0,12l0,0
	c-1.5,1.5-3.6,2.4-5.8,2.4c-2.2,0-4.3-0.9-5.8-2.4l-8.4-8.4l-1.5,1.5l8.3,8.3c3.3,3.3,3.3,8.6,0,11.9c0,0,0,0,0,0l0,0
	c-3.2,3.3-8.5,3.3-11.8,0c0,0,0,0,0,0l-8.3-8.3l-1.5,1.5l8.4,8.4c1.5,1.5,2.4,3.6,2.4,5.8c0,2.2-0.9,4.3-2.4,5.8l-0.2,0.2
	c-1.5,1.5-3.6,2.4-5.8,2.4c-2.2,0-4.3-0.9-5.8-2.4l-8.4-8.4l-1.5,1.5l8.3,8.3c3.2,3.2,3.2,8.5,0,11.7c0,0,0,0,0,0l0,0
	c-3.3,3.3-8.6,3.3-11.9,0c0,0,0,0,0,0l-57.6-57.6c-4.1-4.1-4.1-10.7,0-14.8C73.3,130.4,98.4,105.2,98.4,105.2z"/>
<path class="st1" d="M97.1,150.9c3.2-3.2,3.2-8.4,0-11.6c0,0,0,0,0,0l0,0c-3.3-3.3-8.7-3.3-12,0c0,0,0,0,0,0l-11.8,11.8
	c-3.2,3.2-3.2,8.5,0,11.7l0.1,0.1c3.2,3.2,8.5,3.2,11.7,0L97.1,150.9L97.1,150.9L97.1,150.9z M110.2,164.4c3.3-3.3,3.3-8.6,0-11.9
	c0,0,0,0,0,0l0,0c-3.2-3.2-8.5-3.2-11.7,0l-11.9,11.9c-3.3,3.2-3.3,8.5,0,11.8c0,0,0,0,0,0l0.1,0.1c3.2,3.2,8.4,3.2,11.6,0
	L110.2,164.4L110.2,164.4z M123.6,177.7c3.3-3.3,3.3-8.6,0-11.8c0,0,0,0,0,0l0,0c-1.6-1.6-3.7-2.4-5.9-2.4c-2.2,0-4.3,0.9-5.9,2.4
	l-11.8,11.8c-3.3,3.3-3.3,8.6,0,11.9l0,0c3.3,3.3,8.5,3.3,11.8,0c0,0,0,0,0,0L123.6,177.7L123.6,177.7z M137,190.9
	c3.2-3.2,3.2-8.4,0-11.6c0,0,0,0,0,0l0,0c-1.6-1.6-3.8-2.5-6-2.5c-2.3,0-4.4,0.9-6,2.5L113.2,191c-3.2,3.3-3.2,8.5,0,11.8l0.1,0.1
	c3.2,3.2,8.4,3.2,11.6,0L137,190.9L137,190.9z M121.4,111.8c1.6-1.6,2.4-3.7,2.4-5.9c0-2.2-0.9-4.3-2.4-5.9l-2.9-2.9
	c-3.3-3.3-8.7-3.3-12,0l-9.5,9.5c-1.6,1.6-2.5,3.7-2.5,6c0,2.2,0.9,4.4,2.5,6l3,3c3.2,3.2,8.4,3.2,11.6,0L121.4,111.8L121.4,111.8z"
	/>
<path class="st2" d="M923.3,215.2h-94.8v-19.9l34-34.4c10.1-10.3,16.7-17.5,19.8-21.5c3.1-4,5.3-7.7,6.7-11.1c1.4-3.4,2-7,2-10.6
	c0-5.4-1.5-9.5-4.5-12.2c-3-2.7-7-4-12-4c-5.3,0-10.4,1.2-15.3,3.6c-4.9,2.4-10.1,5.8-15.5,10.3L828.1,97
	c6.7-5.7,12.2-9.7,16.6-12.1c4.4-2.3,9.2-4.2,14.4-5.4c5.2-1.3,11-1.9,17.4-1.9c8.5,0,16,1.5,22.5,4.6c6.5,3.1,11.5,7.4,15.1,13
	c3.6,5.6,5.4,11.9,5.4,19.1c0,6.2-1.1,12.1-3.3,17.6c-2.2,5.5-5.6,11.1-10.2,16.8c-4.6,5.8-12.7,13.9-24.4,24.6l-17.4,16.4v1.3h59.1
	L923.3,215.2L923.3,215.2z"/>
<g>
	<path class="st0" d="M398.2,215.2h-26.7l-15-58.1c-0.6-2.1-1.5-6.3-2.8-12.8c-1.3-6.5-2.1-10.8-2.3-13.1c-0.3,2.7-1.1,7.1-2.3,13.1
		c-1.2,6-2.1,10.3-2.8,12.9l-14.9,58h-26.6l-28.2-110.6h23.1l14.2,60.4c2.5,11.1,4.3,20.8,5.4,29c0.3-2.9,1-7.3,2.1-13.4
		c1.1-6,2.1-10.7,3.1-14l16.1-62h22.2l16.1,62c0.7,2.8,1.6,7,2.6,12.7c1.1,5.7,1.9,10.6,2.4,14.7c0.5-3.9,1.3-8.8,2.4-14.7
		c1.1-5.9,2.1-10.6,3-14.3l14.1-60.4h23.1L398.2,215.2z M530.9,215.2h-23.4v-47.8h-43.8v47.8h-23.5V104.5h23.5v43.4h43.8v-43.4h23.4
		V215.2L530.9,215.2z M622.6,215.2h-63.7V104.5h63.7v19.2h-40.3V148h37.5v19.2h-37.5v28.5h40.3V215.2L622.6,215.2z M669.1,172.7
		v42.5h-23.5V104.5h32.2c15,0,26.2,2.7,33.4,8.2c7.2,5.5,10.8,13.8,10.8,24.9c0,6.5-1.8,12.3-5.4,17.4c-3.6,5.1-8.7,9-15.2,11.9
		c16.6,24.9,27.5,40.9,32.5,48.2h-26l-26.4-42.5L669.1,172.7L669.1,172.7z M669.1,153.6h7.6c7.4,0,12.9-1.2,16.4-3.7
		c3.5-2.5,5.3-6.4,5.3-11.7c0-5.2-1.8-9-5.4-11.2c-3.6-2.2-9.2-3.3-16.8-3.3h-7.1L669.1,153.6L669.1,153.6z M811.7,215.2H748V104.5
		h63.7v19.2h-40.3V148h37.5v19.2h-37.5v28.5h40.3V215.2L811.7,215.2z M1033.9,215.2h-23.4v-47.8h-43.8v47.8h-23.5V104.5h23.5v43.4
		h43.8v-43.4h23.4V215.2L1033.9,215.2z M1125.6,215.2h-63.7V104.5h63.7v19.2h-40.3V148h37.5v19.2h-37.5v28.5h40.3V215.2
		L1125.6,215.2z M1148.7,215.2V104.5h23.5v91.3h44.9v19.4L1148.7,215.2L1148.7,215.2z M1312.7,139c0,11.9-3.7,21-11.2,27.3
		c-7.4,6.3-18,9.5-31.8,9.5h-10.1v39.4h-23.5V104.5h35.3c13.4,0,23.6,2.9,30.6,8.7C1309.2,119,1312.7,127.6,1312.7,139z
		 M1259.7,156.6h7.7c7.2,0,12.6-1.4,16.2-4.3s5.4-7,5.4-12.4c0-5.5-1.5-9.6-4.5-12.2c-3-2.6-7.7-3.9-14.1-3.9h-10.7L1259.7,156.6
		L1259.7,156.6z"/>
</g>
</svg>
