<svg xmlns="http://www.w3.org/2000/svg" width="168.856" height="141.667"><path fill="#00C6D2" d="M114.05 3.036c4.052-4.051 10.612-4.046 14.658 0l37.118 37.118a10.337 10.337 0 0 1 0 14.623l-8.855 8.854a10.63 10.63 0 0 1-7.493 3.105 10.615 10.615 0 0 1-7.494-3.105L105.02 26.668c-4.028-4.028-4.028-10.57.006-14.604l9.026-9.026-.002-.002zM102.22 29.785a10.337 10.337 0 0 0-7.299-3.028c-3.75.012-8.613 0-8.613 0s-7.447.006-12.392.006a10.35 10.35 0 0 0-7.334 3.04L31.297 65.086a12.725 12.725 0 0 0-3.732 8.997 12.743 12.743 0 0 0 3.732 8.997l41.412 41.412c6.466 6.466 16.935 6.466 23.4 0l43.127-43.128c4.022-4.021 4.022-10.54 0-14.562L102.22 29.785z"/><path fill="#FFF" d="M63.76 12.027c4.052 4.052 4.057 10.624.006 14.675L26.613 63.855a10.307 10.307 0 0 1-7.276 3.017 10.29 10.29 0 0 1-7.258-3.011L3.058 54.84A10.438 10.438 0 0 1 0 47.465a10.463 10.463 0 0 1 3.064-7.382l36.84-36.84a10.636 10.636 0 0 1 7.53-3.117 10.63 10.63 0 0 1 7.542 3.117l8.784 8.784zM54.833 41.55l14.788 14.788 4.383-4.384a10.266 10.266 0 0 1 7.27-3.011c4.283 0 10.854.005 15.143 0a10.273 10.273 0 0 1 7.275 3.017l35.349 35.349a8.484 8.484 0 0 1 0 11.996l-.006.006a8.23 8.23 0 0 1-5.827 2.407 8.21 8.21 0 0 1-5.821-2.402l-8.376-8.375-1.478 1.479 8.257 8.257a8.394 8.394 0 0 1 0 11.879l-.006.006a8.318 8.318 0 0 1-11.771 0l-8.312-8.311-1.478 1.479 8.4 8.399a8.24 8.24 0 0 1 2.401 5.797 8.249 8.249 0 0 1-2.401 5.797l-.225.226a8.31 8.31 0 0 1-5.809 2.412 8.291 8.291 0 0 1-5.808-2.411l-8.388-8.389-1.479 1.479 8.34 8.342a8.276 8.276 0 0 1 0 11.71l-.013.012a8.43 8.43 0 0 1-11.931-.006L29.683 81.465c-4.075-4.077-4.075-10.689 0-14.765l25.15-25.15z"/><path fill="#00C6D2" d="M53.467 87.28a8.203 8.203 0 0 0 0-11.605l-.006-.008a8.512 8.512 0 0 0-12.043 0L29.634 87.45c-3.235 3.236-3.242 8.481-.012 11.713l.118.119a8.291 8.291 0 0 0 11.724 0l12.002-12.004.001.002zM66.616 100.749a8.429 8.429 0 0 0 0-11.925l-.023-.024a8.267 8.267 0 0 0-11.688 0L42.98 100.726a8.327 8.327 0 0 0 0 11.783l.13.131a8.224 8.224 0 0 0 11.618 0l11.888-11.891zM79.973 114.011a8.357 8.357 0 0 0 0-11.83l-.005-.006a8.32 8.32 0 0 0-5.909-2.443 8.324 8.324 0 0 0-5.91 2.443l-11.824 11.824c-3.271 3.271-3.271 8.584 0 11.854l.006.006a8.335 8.335 0 0 0 11.795 0l11.847-11.848zM93.389 127.212a8.206 8.206 0 0 0 0-11.616l-.012-.012a8.486 8.486 0 0 0-6.004-2.489c-2.26 0-4.419.893-6.009 2.484L69.593 127.35a8.324 8.324 0 0 0 0 11.77l.147.15c3.2 3.199 8.401 3.193 11.601-.007l12.048-12.051zM77.813 48.146a8.288 8.288 0 0 0 2.426-5.856 8.304 8.304 0 0 0-2.426-5.856l-2.94-2.938c-3.312-3.312-8.671-3.312-11.977-.007l-9.465 9.464a8.457 8.457 0 0 0-2.479 5.993 8.434 8.434 0 0 0 2.479 5.992l3.017 3.017c3.194 3.194 8.365 3.194 11.553.006l9.812-9.815z"/></svg>