<?xml version="1.0" encoding="utf-8"?>
<!-- Generator: Adobe Illustrator 26.0.3, SVG Export Plug-In . SVG Version: 6.00 Build 0)  -->
<svg version="1.1" id="Ebene_1" xmlns="http://www.w3.org/2000/svg" xmlns:xlink="http://www.w3.org/1999/xlink" x="0px" y="0px"
	 viewBox="0 0 168.9 141.7" style="enable-background:new 0 0 168.9 141.7;" xml:space="preserve">
<style type="text/css">
	.st0{fill:#C32D3C;}
	.st1{fill:#FFFFFF;}
</style>
<path class="st0" d="M113.7,3.6c4.1-4.1,10.6-4,14.7,0l37.1,37.1c4,4,4,10.6,0,14.6l0,0l-8.9,8.9c-2,2-4.7,3.1-7.5,3.1
	s-5.5-1.1-7.5-3.1l-37-37c-4-4-4-10.6,0-14.6L113.7,3.6L113.7,3.6z M101.9,30.3c-1.9-1.9-4.6-3-7.3-3c-3.8,0-8.6,0-8.6,0
	s-7.4,0-12.4,0c-2.8,0-5.4,1.1-7.3,3L31,65.6c-2.4,2.4-3.7,5.6-3.7,9s1.3,6.6,3.7,9L72.4,125c6.5,6.5,16.9,6.5,23.4,0l43.1-43.1
	c4-4,4-10.5,0-14.6L101.9,30.3L101.9,30.3z"/>
<path class="st1" d="M63.4,12.6c4.1,4.1,4.1,10.6,0,14.7L26.2,64.5c-1.9,1.9-4.5,3-7.3,3c-2.7,0-5.3-1.1-7.3-3l-9-9
	c-2-2-3.1-4.6-3.1-7.4s1.1-5.4,3.1-7.4L39.4,3.9c2-2,4.7-3.1,7.5-3.1s5.5,1.1,7.5,3.1L63.4,12.6L63.4,12.6z M54.5,42.1l14.8,14.8
	l4.4-4.4c1.9-1.9,4.5-3,7.3-3c4.3,0,10.9,0,15.1,0c2.7,0,5.3,1.1,7.3,3l35.3,35.3c3.3,3.3,3.3,8.7,0,12l0,0
	c-1.5,1.5-3.6,2.4-5.8,2.4s-4.3-0.9-5.8-2.4l-8.4-8.4l-1.5,1.5l8.3,8.3c3.3,3.3,3.3,8.6,0,11.9l0,0l0,0c-3.2,3.3-8.5,3.3-11.8,0l0,0
	l-8.3-8.3l-1.5,1.5l8.4,8.4c1.5,1.5,2.4,3.6,2.4,5.8s-0.9,4.3-2.4,5.8l-0.2,0.2c-1.5,1.5-3.6,2.4-5.8,2.4s-4.3-0.9-5.8-2.4l-8.4-8.4
	l-1.5,1.5l8.3,8.3c3.2,3.2,3.2,8.5,0,11.7l0,0l0,0c-3.3,3.3-8.6,3.3-11.9,0l0,0L29.4,82c-4.1-4.1-4.1-10.7,0-14.8
	C29.3,67.2,54.5,42.1,54.5,42.1z"/>
<path class="st0" d="M53.1,87.8c3.2-3.2,3.2-8.4,0-11.6l0,0l0,0c-3.3-3.3-8.7-3.3-12,0l0,0L29.3,88c-3.2,3.2-3.2,8.5,0,11.7l0.1,0.1
	c3.2,3.2,8.5,3.2,11.7,0L53.1,87.8L53.1,87.8L53.1,87.8z M66.3,101.3c3.3-3.3,3.3-8.6,0-11.9l0,0l0,0c-3.2-3.2-8.5-3.2-11.7,0
	l-11.9,11.9c-3.3,3.2-3.3,8.5,0,11.8l0,0l0.1,0.1c3.2,3.2,8.4,3.2,11.6,0L66.3,101.3L66.3,101.3z M79.6,114.6
	c3.3-3.3,3.3-8.6,0-11.8l0,0l0,0c-1.6-1.6-3.7-2.4-5.9-2.4c-2.2,0-4.3,0.9-5.9,2.4L56,114.6c-3.3,3.3-3.3,8.6,0,11.9l0,0
	c3.3,3.3,8.5,3.3,11.8,0l0,0L79.6,114.6L79.6,114.6z M93.1,127.8c3.2-3.2,3.2-8.4,0-11.6l0,0l0,0c-1.6-1.6-3.8-2.5-6-2.5
	c-2.3,0-4.4,0.9-6,2.5L69.3,128c-3.2,3.3-3.2,8.5,0,11.8l0.1,0.1c3.2,3.2,8.4,3.2,11.6,0L93.1,127.8L93.1,127.8z M77.5,48.7
	c1.6-1.6,2.4-3.7,2.4-5.9c0-2.2-0.9-4.3-2.4-5.9L74.6,34c-3.3-3.3-8.7-3.3-12,0l-9.5,9.5c-1.6,1.6-2.5,3.7-2.5,6
	c0,2.2,0.9,4.4,2.5,6l3,3c3.2,3.2,8.4,3.2,11.6,0L77.5,48.7L77.5,48.7z"/>
</svg>
