<?xml version="1.0" encoding="utf-8"?>
<!-- Generator: Adobe Illustrator 16.0.0, SVG Export Plug-In . SVG Version: 6.00 Build 0)  -->
<!DOCTYPE svg PUBLIC "-//W3C//DTD SVG 1.1//EN" "http://www.w3.org/Graphics/SVG/1.1/DTD/svg11.dtd">
<svg version="1.1" id="Layer_1" xmlns="http://www.w3.org/2000/svg" xmlns:xlink="http://www.w3.org/1999/xlink" x="0px" y="0px"
	 width="1312.665px" height="256px" viewBox="0 0 1312.665 256" enable-background="new 0 0 1312.665 256" xml:space="preserve">
<path id="base_light" fill="#00C6D2" d="M256,256c0,0-64.051,0-128.077,0c-33.933,0-66.471-13.479-90.458-37.466
	C13.479,194.547,0,162.01,0,128.077c0-0.013,0-0.013,0-0.026c0-33.958,13.491-66.534,37.504-90.547
	C61.517,13.491,94.093,0,128.051,0c0.192,0,0.384,0,0.563,0C198.976,0,256,57.024,256,127.386C256,191.591,256,256,256,256z"/>
<g id="icon_light" transform="matrix(0.462123,0.462123,-0.462123,0.462123,10.0001,1.74972)">
	<path fill="#FFFFFF" d="M230.012-89.474c0.001-8.768,7.104-15.859,15.859-15.859l80.32-0.001c8.741,0,15.822,7.079,15.822,15.822
		l-0.001,19.161c-0.001,4.3-1.714,8.423-4.747,11.468c-3.034,3.034-7.17,4.748-11.469,4.748h-79.987
		c-8.717,0-15.795-7.078-15.795-15.808v-19.532H230.012z"/>
	<path fill="#FFFFFF" d="M246.153-47.734c-4.198,0-8.205,1.664-11.174,4.621c-4.045,4.071-9.319,9.319-9.319,9.319
		s-8.051,8.064-13.401,13.414c-2.982,2.97-4.646,7.015-4.646,11.225l-0.001,76.352c0,5.171,2.049,10.125,5.696,13.773
		c3.661,3.648,8.602,5.696,13.773,5.696h89.613c13.992,0,25.319-11.327,25.318-25.318l-0.001-93.325
		c0.001-8.703-7.052-15.756-15.756-15.756L246.153-47.734z"/>
	<path fill="#17252C" d="M185.328-25.334c8.768,0,15.884,7.105,15.884,15.871v80.397c0.001,4.186-1.664,8.179-4.608,11.136
		c-2.956,2.944-6.95,4.596-11.111,4.596h-19.52c-4.224,0-8.294-1.676-11.289-4.672c-2.995-3.008-4.672-7.065-4.672-11.302V-9.027
		c0-4.313,1.715-8.473,4.774-11.52c3.059-3.072,7.207-4.787,11.533-4.787L185.328-25.334z"/>
	<path fill="#17252C" d="M207.612,16.266h32l-0.001-9.486c-0.001-4.172,1.651-8.166,4.608-11.123
		c4.634-4.634,11.75-11.738,16.384-16.384c2.944-2.956,6.964-4.607,11.136-4.608h76.493c7.168,0,12.979,5.811,12.979,12.979v0.013
		c0,3.341-1.331,6.54-3.7,8.909c-2.355,2.368-5.567,3.699-8.897,3.699L330.49,0.266l0.001,3.199l17.868-0.001
		c7.106,0.001,12.851,5.747,12.852,12.852v0.013c0,7.041-5.697,12.736-12.736,12.736l-17.984,0.001v3.199l18.176-0.001
		c3.315,0.001,6.515,1.331,8.87,3.674c2.342,2.356,3.673,5.556,3.674,8.87l0.001,0.488c0,3.314-1.332,6.514-3.675,8.895
		c-2.379,2.344-5.566,3.675-8.894,3.675l-18.151-0.001l0.001,3.2l18.048,0.001c7.002-0.001,12.671,5.669,12.671,12.67l-0.001,0.026
		c0.001,7.129-5.773,12.903-12.915,12.902l-124.71,0.001c-8.819-0.002-15.975-7.156-15.975-15.975l0.001-54.424L207.612,16.266z"/>
	<path fill="#FFFFFF" d="M255.612,67.223c-0.001-6.939-5.62-12.558-12.557-12.557l-0.015-0.002c-7.194,0-13.031,5.825-13.031,13.031
		v25.498c0.001,7.002,5.67,12.685,12.66,12.686l0.257,0.001c7.014-0.002,12.684-5.685,12.685-12.685l-0.001-25.973L255.612,67.223z"
		/>
	<path fill="#FFFFFF" d="M284.412,67.569c0-7.13-5.773-12.903-12.902-12.902l-0.052-0.001c-3.34-0.001-6.566,1.331-8.934,3.699
		c-2.381,2.381-3.714,5.605-3.712,8.947l0.001,25.806c-0.001,7.052,5.708,12.748,12.748,12.748l0.283,0.001
		c3.314-0.001,6.516-1.319,8.883-3.686c2.355-2.355,3.686-5.556,3.687-8.883L284.412,67.569L284.412,67.569z"/>
	<path fill="#FFFFFF" d="M313.212,67.466c0-7.079-5.722-12.8-12.8-12.8H300.4c-3.393-0.001-6.643,1.343-9.037,3.75
		c-2.406,2.394-3.751,5.644-3.75,9.038l0,25.587c-0.001,7.078,5.747,12.826,12.825,12.825h0.013
		c7.053,0.001,12.762-5.708,12.762-12.762V67.466z"/>
	<path fill="#FFFFFF" d="M342.01,67.234c0.001-6.949-5.618-12.568-12.568-12.568h-0.025c-3.456,0.001-6.759,1.37-9.189,3.803
		c-2.445,2.445-3.815,5.747-3.814,9.19l0,25.473c-0.001,7.025,5.697,12.735,12.734,12.734l0.322,0.002
		c6.925,0,12.545-5.633,12.544-12.558L342.01,67.234z"/>
	<path fill="#FFFFFF" d="M239.612-1.461c0-3.354-1.332-6.58-3.712-8.961c-2.381-2.368-5.593-3.711-8.961-3.712l-6.361,0.001
		c-7.168,0-12.966,5.798-12.966,12.952l-0.001,20.48c0.001,3.444,1.37,6.746,3.802,9.166c2.432,2.444,5.721,3.802,9.165,3.802h6.528
		c6.912,0,12.507-5.594,12.507-12.493L239.612-1.461z"/>
</g>
<path fill="#FFFFFF" d="M923.297,215.165h-94.814v-19.946l34.049-34.419c10.08-10.328,16.666-17.488,19.76-21.477
	c3.092-3.99,5.318-7.685,6.68-11.087c1.359-3.4,2.041-6.926,2.041-10.576c0-5.441-1.5-9.493-4.5-12.153
	c-3-2.658-7.004-3.989-12.014-3.989c-5.258,0-10.359,1.206-15.307,3.618c-4.949,2.412-10.113,5.845-15.494,10.298l-15.586-18.462
	c6.68-5.689,12.215-9.709,16.607-12.061c4.391-2.35,9.184-4.159,14.379-5.428c5.195-1.267,11.008-1.901,17.441-1.901
	c8.473,0,15.957,1.547,22.451,4.639c6.494,3.094,11.535,7.422,15.123,12.988c3.586,5.566,5.381,11.938,5.381,19.111
	c0,6.248-1.1,12.106-3.295,17.581c-2.195,5.473-5.598,11.086-10.205,16.838s-12.725,13.948-24.352,24.585l-17.441,16.421v1.299
	h59.096V215.165z"/>
<g>
	<path fill="#00C6D2" d="M398.183,215.165h-26.716l-14.985-58.125c-0.556-2.068-1.502-6.345-2.838-12.828
		c-1.337-6.483-2.107-10.835-2.308-13.056c-0.303,2.725-1.06,7.103-2.271,13.131c-1.211,6.03-2.145,10.331-2.8,12.904l-14.91,57.974
		h-26.641l-28.23-110.649h23.083l14.153,60.396c2.472,11.151,4.263,20.812,5.374,28.986c0.303-2.875,0.996-7.328,2.082-13.357
		c1.084-6.029,2.106-10.709,3.065-14.039l16.121-61.985h22.175l16.121,61.985c0.706,2.775,1.589,7.014,2.649,12.715
		c1.06,5.702,1.866,10.596,2.422,14.682c0.504-3.936,1.312-8.842,2.422-14.72c1.109-5.878,2.119-10.634,3.027-14.267l14.077-60.396
		h23.083L398.183,215.165z"/>
	<path fill="#00C6D2" d="M530.932,215.165h-23.386v-47.756h-43.821v47.756h-23.462V104.516h23.462v43.366h43.821v-43.366h23.386
		V215.165z"/>
	<path fill="#00C6D2" d="M622.584,215.165h-63.726V104.516h63.726v19.224H582.32v24.295h37.464v19.223H582.32v28.533h40.264V215.165
		z"/>
	<path fill="#00C6D2" d="M669.129,172.706v42.459h-23.461V104.516h32.24c15.035,0,26.16,2.737,33.377,8.212
		c7.215,5.475,10.822,13.787,10.822,24.938c0,6.509-1.791,12.299-5.373,17.369c-3.584,5.071-8.654,9.045-15.213,11.92
		c16.65,24.876,27.498,40.945,32.545,48.211h-26.035l-26.414-42.459H669.129z M669.129,153.634h7.568
		c7.418,0,12.891-1.235,16.424-3.708c3.531-2.472,5.299-6.357,5.299-11.655c0-5.247-1.805-8.98-5.412-11.201
		c-3.607-2.22-9.195-3.33-16.764-3.33h-7.115V153.634z"/>
	<path fill="#00C6D2" d="M811.717,215.165h-63.725V104.516h63.725v19.224h-40.264v24.295h37.465v19.223h-37.465v28.533h40.264
		V215.165z"/>
	<path fill="#00C6D2" d="M1033.922,215.165h-23.387v-47.756h-43.82v47.756h-23.463V104.516h23.463v43.366h43.82v-43.366h23.387
		V215.165z"/>
	<path fill="#00C6D2" d="M1125.575,215.165h-63.725V104.516h63.725v19.224h-40.264v24.295h37.465v19.223h-37.465v28.533h40.264
		V215.165z"/>
	<path fill="#00C6D2" d="M1148.659,215.165V104.516h23.463v91.274H1217v19.375H1148.659z"/>
	<path fill="#00C6D2" d="M1312.665,139.027c0,11.908-3.721,21.016-11.162,27.321c-7.443,6.309-18.027,9.461-31.75,9.461h-10.066
		v39.355h-23.461V104.516h35.344c13.42,0,23.625,2.889,30.613,8.666S1312.665,127.574,1312.665,139.027z M1259.686,156.586h7.721
		c7.215,0,12.613-1.425,16.195-4.276c3.582-2.85,5.375-7,5.375-12.449c0-5.499-1.502-9.562-4.504-12.186
		c-3.002-2.623-7.709-3.936-14.115-3.936h-10.672V156.586z"/>
</g>
</svg>
