<?xml version="1.0" encoding="utf-8"?>
<!-- Generator: Adobe Illustrator 16.0.0, SVG Export Plug-In . SVG Version: 6.00 Build 0)  -->
<!DOCTYPE svg PUBLIC "-//W3C//DTD SVG 1.1//EN" "http://www.w3.org/Graphics/SVG/1.1/DTD/svg11.dtd">
<svg version="1.1" id="Layer_1" xmlns="http://www.w3.org/2000/svg" xmlns:xlink="http://www.w3.org/1999/xlink" x="0px" y="0px"
	 width="1280.001px" height="256px" viewBox="0 0 1280.001 256" enable-background="new 0 0 1280.001 256" xml:space="preserve">
<path id="base_light" fill="#00C6D2" d="M256,256c0,0-64.051,0-128.077,0c-33.933,0-66.471-13.479-90.458-37.466
	C13.479,194.547,0,162.01,0,128.077c0-0.013,0-0.013,0-0.026c0-33.958,13.491-66.534,37.504-90.547S94.093,0,128.051,0
	c0.192,0,0.384,0,0.563,0C198.976,0,256,57.024,256,127.386C256,191.591,256,256,256,256z"/>
<g id="icon_light" transform="matrix(0.462123,0.462123,-0.462123,0.462123,10.0001,1.74972)">
	<path fill="#FFFFFF" d="M230.012-89.474c0.001-8.768,7.104-15.859,15.859-15.859l80.32-0.001c8.742,0,15.822,7.079,15.822,15.822
		l-0.001,19.161c0,4.3-1.715,8.422-4.748,11.468c-3.034,3.034-7.169,4.749-11.469,4.749h-79.987
		c-8.717,0-15.795-7.078-15.795-15.808V-89.474z"/>
	<path fill="#FFFFFF" d="M246.153-47.734c-4.198,0.001-8.205,1.664-11.174,4.621c-4.045,4.071-9.319,9.319-9.319,9.319
		s-8.051,8.064-13.401,13.414c-2.982,2.97-4.646,7.015-4.647,11.225l0,76.352c0,5.171,2.049,10.125,5.696,13.773
		c3.661,3.648,8.602,5.696,13.773,5.696l89.613,0c13.991,0,25.319-11.327,25.318-25.318l-0.001-93.325
		c0.001-8.703-7.052-15.756-15.756-15.756L246.153-47.734z"/>
	<path fill="#17252C" d="M185.328-25.334c8.768,0,15.884,7.104,15.884,15.871v80.397c0.001,4.186-1.664,8.179-4.608,11.136
		c-2.957,2.944-6.95,4.596-11.111,4.596l-19.52,0c-4.224,0-8.294-1.676-11.289-4.672c-2.995-3.008-4.672-7.065-4.672-11.302V-9.027
		c0-4.313,1.715-8.473,4.774-11.52c3.059-3.072,7.207-4.787,11.533-4.787H185.328z"/>
	<path fill="#17252C" d="M207.612,16.266h32l-0.001-9.486c0-4.172,1.651-8.166,4.608-11.123c4.634-4.634,11.75-11.738,16.384-16.384
		c2.944-2.956,6.964-4.607,11.136-4.608l76.493,0c7.168,0,12.979,5.811,12.979,12.979v0.013c0,3.341-1.331,6.54-3.7,8.909
		c-2.355,2.368-5.567,3.699-8.896,3.699h-18.125v3.199l17.869,0c7.105,0,12.851,5.747,12.851,12.851v0.013
		c0,7.04-5.697,12.736-12.736,12.736l-17.984,0.001l0,3.2l18.176-0.001c3.315,0.001,6.515,1.331,8.87,3.674
		c2.342,2.355,3.673,5.555,3.674,8.87l0,0.487c0,3.315-1.331,6.515-3.674,8.896c-2.38,2.343-5.567,3.674-8.896,3.674l-18.15,0l0,3.2
		l18.048,0c7.002,0,12.672,5.67,12.672,12.671l0,0.026c0,7.129-5.773,12.903-12.915,12.902l-124.711,0
		c-8.818,0-15.974-7.155-15.974-15.974V16.266z"/>
	<path fill="#FFFFFF" d="M255.612,67.223c0-6.938-5.62-12.558-12.557-12.557l-0.014-0.001c-7.194,0.001-13.031,5.825-13.031,13.031
		v25.498c0.001,7.002,5.671,12.685,12.659,12.685l0.257,0.001c7.014-0.001,12.685-5.684,12.685-12.685V67.223z"/>
	<path fill="#FFFFFF" d="M284.412,67.569c0-7.13-5.774-12.903-12.902-12.902l-0.052-0.001c-3.34-0.001-6.566,1.331-8.934,3.699
		c-2.381,2.381-3.713,5.606-3.712,8.947l0,25.806c0,7.052,5.708,12.748,12.748,12.748l0.283,0c3.314,0,6.515-1.319,8.883-3.686
		c2.355-2.355,3.686-5.556,3.686-8.883V67.569z"/>
	<path fill="#FFFFFF" d="M313.212,67.466c0-7.079-5.722-12.8-12.8-12.8l-0.013,0c-3.393,0-6.643,1.344-9.037,3.75
		c-2.406,2.394-3.751,5.644-3.75,9.038l0,25.587c-0.001,7.078,5.747,12.826,12.825,12.825l0.013,0
		c7.053,0.001,12.762-5.708,12.762-12.762L313.212,67.466z"/>
	<path fill="#FFFFFF" d="M342.011,67.235c0-6.95-5.619-12.569-12.569-12.569h-0.025c-3.456,0.001-6.759,1.37-9.19,3.802
		c-2.445,2.445-3.814,5.748-3.814,9.19l0,25.473c0,7.026,5.696,12.735,12.735,12.735l0.321,0.001
		c6.925,0,12.545-5.632,12.544-12.557L342.011,67.235z"/>
	<path fill="#FFFFFF" d="M239.612-1.461c0-3.354-1.332-6.58-3.712-8.961c-2.381-2.368-5.593-3.711-8.961-3.712l-6.361,0.001
		c-7.168,0-12.966,5.798-12.966,12.953l-0.001,20.48c0,3.444,1.37,6.746,3.802,9.165c2.432,2.445,5.722,3.802,9.165,3.802l6.528,0
		c6.912,0,12.506-5.594,12.506-12.493L239.612-1.461z"/>
</g>
<g>
	<g transform="matrix(0.930686,0,0,1,-8.60726,3.52475)">
		<path fill="#00C6D2" d="M332.576,211.64l-26.253-109.952h22.72l16.576,75.532l20.096-75.532h26.407l19.277,76.8l16.87-76.8h22.349
			L423.917,211.64h-23.552l-21.888-82.202L356.64,211.64H332.576z"/>
		<path fill="#00C6D2" d="M462.022,211.64V101.688h22.196v43.276h43.507v-43.276h22.195V211.64h-22.195v-48.077h-43.507v48.077
			H462.022z"/>
		<path fill="#00C6D2" d="M572.871,211.64V101.688h81.523v18.611h-59.328v24.371h55.206v18.521h-55.206v29.927h61.428v18.521
			H572.871z"/>
		<path fill="#00C6D2" d="M675.398,211.64V101.688h46.72c11.751,0,20.288,0.998,25.613,2.97c5.325,1.971,9.587,5.491,12.788,10.534
			c3.199,5.056,4.799,10.829,4.799,17.331c0,8.243-2.42,15.053-7.271,20.429s-12.096,8.769-21.747,10.163
			c4.799,2.804,8.755,5.876,11.878,9.229s7.347,9.306,12.646,17.855l13.414,21.44h-26.547l-16.051-23.924
			c-5.696-8.55-9.6-13.938-11.699-16.166c-2.1-2.215-4.327-3.75-6.669-4.569c-2.355-0.819-6.08-1.242-11.174-1.242h-4.506v45.901
			H675.398z M697.594,148.19h16.422c10.649,0,17.305-0.447,19.954-1.344c2.649-0.908,4.724-2.457,6.221-4.646
			c1.497-2.201,2.253-4.953,2.253-8.256c0-3.699-0.985-6.682-2.957-8.96c-1.984-2.278-4.762-3.712-8.371-4.313
			c-1.792-0.256-7.194-0.371-16.192-0.371h-17.331V148.19z"/>
		<path fill="#00C6D2" d="M786.247,211.64V101.688h81.523v18.611h-59.328v24.371h55.206v18.521h-55.206v29.927h61.428v18.521
			H786.247z"/>
	</g>
	<g transform="matrix(0.910165,0,0,1,41.8699,3.52475)">
		<path fill="#00C6D2" d="M968.99,211.64V101.688h22.195v43.276h43.507v-43.276h22.195V211.64h-22.195v-48.077h-43.507v48.077
			H968.99z"/>
		<path fill="#00C6D2" d="M1079.837,211.64V101.688h81.524v18.611h-59.329v24.371h55.207v18.521h-55.207v29.927h61.427v18.521
			H1079.837z"/>
		<path fill="#00C6D2" d="M1182.89,211.64V102.596h22.196v90.522h55.205v18.521H1182.89z"/>
		<path fill="#00C6D2" d="M1276.112,211.64V101.688h35.623c13.504,0,22.297,0.551,26.406,1.651
			c6.297,1.651,11.571,5.248,15.821,10.765c4.249,5.529,6.374,12.659,6.374,21.414c0,6.746-1.229,12.429-3.674,17.024
			c-2.458,4.595-5.568,8.218-9.344,10.842c-3.776,2.624-7.603,4.364-11.506,5.209c-5.299,1.05-12.979,1.574-23.028,1.574h-14.476
			v41.473H1276.112z M1298.308,120.299v31.193h12.147c8.755,0,14.605-0.576,17.561-1.728c2.944-1.152,5.262-2.944,6.938-5.402
			c1.664-2.444,2.509-5.299,2.509-8.55c0-3.994-1.177-7.296-3.532-9.895c-2.342-2.599-5.325-4.225-8.922-4.877
			c-2.649-0.499-7.974-0.742-15.974-0.742H1298.308z"/>
	</g>
	<g transform="matrix(1.34131,0,0,1.35855,-26.755,-1.65836)">
		<path fill="#FFFFFF" d="M694.708,159.599v-15.668h-41.011v-0.307l8.756-7.526c17.356-16.128,29.952-30.26,29.952-47.77
			c0-16.281-10.752-30.259-32.871-30.259c-12.595,0-23.501,4.454-30.72,10.291l5.53,13.363c5.069-3.84,12.596-8.294,21.351-8.294
			c13.056,0,17.818,7.833,17.818,16.742c-0.154,13.21-11.213,25.191-34.714,47.002l-11.827,10.905v11.52H694.708z"/>
	</g>
</g>
</svg>
