<?xml version="1.0" encoding="utf-8"?>
<!-- Generator: Adobe Illustrator 16.0.0, SVG Export Plug-In . SVG Version: 6.00 Build 0)  -->
<!DOCTYPE svg PUBLIC "-//W3C//DTD SVG 1.1//EN" "http://www.w3.org/Graphics/SVG/1.1/DTD/svg11.dtd">
<svg version="1.1" id="Layer_1" xmlns="http://www.w3.org/2000/svg" xmlns:xlink="http://www.w3.org/1999/xlink" x="0px" y="0px"
	 width="1312.665px" height="256px" viewBox="0 0 1312.665 256" enable-background="new 0 0 1312.665 256" xml:space="preserve">
<path id="base_light" fill="#00C6D2" d="M256,256c0,0-64.051,0-128.077,0c-33.933,0-66.471-13.479-90.458-37.466
	C13.479,194.547,0,162.01,0,128.077c0-0.013,0-0.013,0-0.026c0-33.958,13.491-66.534,37.504-90.547
	C61.517,13.491,94.093,0,128.051,0c0.192,0,0.384,0,0.563,0C198.976,0,256,57.024,256,127.386C256,191.591,256,256,256,256z"/>
<path fill="#17252C" d="M157.642,66.695c4.052-4.051,10.612-4.046,14.658,0l37.118,37.118c4.039,4.039,4.04,10.583,0,14.623
	l-8.855,8.854c-1.988,1.987-4.685,3.1-7.493,3.106c-2.804,0-5.508-1.119-7.494-3.106l-36.964-36.964
	c-4.028-4.028-4.028-10.57,0.006-14.604l9.026-9.026L157.642,66.695L157.642,66.695z"/>
<path fill="#17252C" d="M145.812,93.444c-1.94-1.94-4.561-3.023-7.299-3.028c-3.75,0.012-8.613,0-8.613,0s-7.447,0.006-12.392,0.006
	c-2.75-0.005-5.389,1.095-7.334,3.041l-35.285,35.283c-2.39,2.39-3.732,5.626-3.732,8.997c0.006,3.378,1.343,6.607,3.732,8.997
	l41.412,41.412c6.466,6.466,16.935,6.466,23.4,0l43.127-43.128c4.022-4.021,4.022-10.54,0-14.562L145.812,93.444z"/>
<path fill="#FFFFFF" d="M107.352,75.687c4.052,4.052,4.057,10.624,0.006,14.675l-37.153,37.153
	c-1.934,1.935-4.549,3.011-7.276,3.017c-2.727-0.006-5.335-1.088-7.258-3.011L46.65,118.5c-1.952-1.952-3.059-4.607-3.058-7.376
	c0.006-2.774,1.106-5.424,3.064-7.382l36.84-36.84c1.993-1.993,4.708-3.123,7.53-3.118c2.833-0.006,5.543,1.118,7.542,3.118
	L107.352,75.687z"/>
<path fill="#FFFFFF" d="M98.425,105.209l14.788,14.788l4.383-4.384c1.928-1.929,4.537-3.011,7.27-3.011
	c4.283,0,10.854,0.005,15.143,0c2.727-0.006,5.347,1.089,7.275,3.017l35.349,35.349c3.312,3.312,3.312,8.684,0,11.996l-0.006,0.006
	c-1.544,1.544-3.637,2.407-5.827,2.407c-2.183,0.006-4.282-0.863-5.821-2.402l-8.376-8.375l-1.478,1.479l8.257,8.257
	c3.284,3.284,3.283,8.595,0,11.879l-0.006,0.006c-3.254,3.254-8.518,3.253-11.771,0l-8.312-8.311l-1.478,1.479l8.4,8.399
	c1.531,1.532,2.396,3.625,2.401,5.797c-0.006,2.17-0.87,4.265-2.401,5.797l-0.225,0.226c-1.531,1.531-3.626,2.395-5.809,2.412
	c-2.183-0.017-4.271-0.874-5.808-2.411l-8.388-8.389l-1.479,1.479l8.34,8.342c3.236,3.234,3.236,8.475,0,11.71l-0.013,0.012
	c-3.294,3.295-8.631,3.295-11.931-0.006l-57.632-57.631c-4.075-4.077-4.075-10.689,0-14.765L98.425,105.209L98.425,105.209z"/>
<path fill="#17252C" d="M97.059,150.939c3.206-3.207,3.206-8.4,0-11.605l-0.006-0.008c-3.324-3.325-8.713-3.33-12.043,0
	l-11.783,11.783c-3.235,3.236-3.242,8.481-0.012,11.713l0.118,0.119c3.242,3.24,8.489,3.234,11.724,0l12.002-12.004L97.059,150.939z
	"/>
<path fill="#17252C" d="M110.208,164.408c3.295-3.295,3.295-8.631,0-11.925l-0.023-0.024c-1.543-1.544-3.649-2.419-5.838-2.419
	c-2.201,0-4.307,0.874-5.85,2.419l-11.925,11.926c-3.26,3.259-3.253,8.529,0,11.783l0.13,0.131c1.532,1.531,3.621,2.401,5.809,2.401
	c2.177,0,4.271-0.864,5.809-2.401L110.208,164.408L110.208,164.408z"/>
<path fill="#17252C" d="M123.565,177.67c3.271-3.271,3.271-8.56,0-11.83l-0.005-0.006c-1.568-1.568-3.69-2.449-5.909-2.443
	c-2.218-0.006-4.342,0.875-5.91,2.443l-11.824,11.824c-3.271,3.271-3.271,8.584,0,11.854l0.006,0.006
	c3.259,3.26,8.535,3.26,11.795,0L123.565,177.67L123.565,177.67z"/>
<path fill="#17252C" d="M136.98,190.871c3.212-3.211,3.212-8.404,0-11.616l-0.012-0.012c-1.598-1.597-3.756-2.49-6.004-2.489
	c-2.26,0-4.419,0.893-6.009,2.484l-11.771,11.771c-3.247,3.246-3.252,8.519,0,11.77l0.147,0.15c3.2,3.199,8.401,3.193,11.601-0.007
	L136.98,190.871z"/>
<path fill="#17252C" d="M121.405,111.805c1.55-1.55,2.425-3.656,2.426-5.856c-0.006-2.194-0.87-4.3-2.426-5.856l-2.94-2.939
	c-3.312-3.312-8.671-3.312-11.977-0.006l-9.465,9.463c-1.591,1.592-2.484,3.75-2.479,5.993c-0.005,2.253,0.887,4.401,2.479,5.992
	l3.017,3.017c3.194,3.194,8.365,3.195,11.553,0.006L121.405,111.805z"/>
<path fill="#FFFFFF" d="M923.297,215.165h-94.814v-19.946l34.049-34.419c10.08-10.327,16.666-17.487,19.76-21.477
	c3.092-3.99,5.318-7.685,6.68-11.087c1.359-3.4,2.041-6.926,2.041-10.576c0-5.441-1.5-9.493-4.5-12.153
	c-3-2.658-7.004-3.989-12.014-3.989c-5.258,0-10.359,1.206-15.307,3.618c-4.949,2.412-10.113,5.845-15.494,10.298l-15.586-18.462
	c6.68-5.689,12.215-9.709,16.607-12.061c4.391-2.35,9.184-4.159,14.379-5.428c5.195-1.267,11.008-1.901,17.441-1.901
	c8.473,0,15.957,1.547,22.451,4.639c6.494,3.094,11.535,7.422,15.123,12.988c3.586,5.566,5.381,11.938,5.381,19.111
	c0,6.248-1.1,12.106-3.295,17.581c-2.195,5.474-5.6,11.086-10.205,16.838c-4.607,5.753-12.725,13.949-24.354,24.586l-17.439,16.421
	v1.299h59.096V215.165z"/>
<g>
	<path fill="#00C6D2" d="M398.183,215.165h-26.716l-14.985-58.125c-0.556-2.067-1.502-6.345-2.838-12.828
		c-1.337-6.483-2.107-10.835-2.308-13.056c-0.303,2.725-1.06,7.103-2.271,13.131c-1.211,6.029-2.145,10.331-2.8,12.904
		l-14.91,57.974h-26.641l-28.23-110.649h23.083l14.153,60.396c2.472,11.15,4.263,20.812,5.374,28.986
		c0.303-2.875,0.996-7.328,2.082-13.357c1.084-6.029,2.106-10.709,3.065-14.039l16.121-61.985h22.175l16.121,61.985
		c0.706,2.775,1.589,7.014,2.649,12.715c1.06,5.702,1.866,10.596,2.422,14.682c0.504-3.936,1.312-8.842,2.422-14.72
		c1.109-5.878,2.119-10.634,3.027-14.267l14.077-60.396h23.083L398.183,215.165z"/>
	<path fill="#00C6D2" d="M530.932,215.165h-23.386v-47.756h-43.821v47.756h-23.462V104.516h23.462v43.366h43.821v-43.366h23.386
		V215.165z"/>
	<path fill="#00C6D2" d="M622.584,215.165h-63.726V104.516h63.726v19.224H582.32v24.295h37.464v19.223H582.32v28.533h40.264V215.165
		z"/>
	<path fill="#00C6D2" d="M669.129,172.706v42.459h-23.461V104.516h32.241c15.035,0,26.16,2.737,33.377,8.212
		c7.215,5.475,10.822,13.787,10.822,24.938c0,6.509-1.791,12.299-5.373,17.369c-3.584,5.07-8.654,9.045-15.213,11.92
		c16.648,24.876,27.498,40.945,32.545,48.211h-26.035l-26.414-42.459L669.129,172.706L669.129,172.706z M669.129,153.634h7.568
		c7.418,0,12.891-1.235,16.424-3.708c3.531-2.472,5.299-6.357,5.299-11.654c0-5.248-1.805-8.98-5.412-11.202
		c-3.607-2.22-9.195-3.33-16.764-3.33h-7.115V153.634L669.129,153.634z"/>
	<path fill="#00C6D2" d="M811.717,215.165h-63.725V104.516h63.725v19.224h-40.264v24.295h37.465v19.223h-37.465v28.533h40.264
		V215.165z"/>
	<path fill="#00C6D2" d="M1033.922,215.165h-23.387v-47.756h-43.82v47.756h-23.463V104.516h23.463v43.366h43.82v-43.366h23.387
		V215.165z"/>
	<path fill="#00C6D2" d="M1125.575,215.165h-63.725V104.516h63.725v19.224h-40.264v24.295h37.465v19.223h-37.465v28.533h40.264
		V215.165z"/>
	<path fill="#00C6D2" d="M1148.659,215.165V104.516h23.463v91.274H1217v19.375H1148.659L1148.659,215.165z"/>
	<path fill="#00C6D2" d="M1312.665,139.027c0,11.908-3.721,21.016-11.162,27.32c-7.441,6.31-18.025,9.461-31.75,9.461h-10.064
		v39.355h-23.463V104.516h35.346c13.42,0,23.625,2.889,30.611,8.666C1309.17,118.959,1312.665,127.574,1312.665,139.027z
		 M1259.686,156.586h7.721c7.215,0,12.613-1.425,16.195-4.275s5.375-7,5.375-12.449c0-5.5-1.502-9.562-4.504-12.187
		c-3.002-2.623-7.709-3.936-14.115-3.936h-10.672V156.586L1259.686,156.586z"/>
</g>
</svg>
