<?xml version="1.0" standalone="no"?>
<!DOCTYPE svg PUBLIC "-//W3C//DTD SVG 1.1//EN" "http://www.w3.org/Graphics/SVG/1.1/DTD/svg11.dtd">
<svg width="100%" height="100%" viewBox="0 0 100 20" version="1.1" xmlns="http://www.w3.org/2000/svg" xmlns:xlink="http://www.w3.org/1999/xlink" xml:space="preserve" style="fill-rule:evenodd;clip-rule:evenodd;stroke-linejoin:round;stroke-miterlimit:1.41421;">
    <path id="base_light" d="M20,20C20,20 14.996,20 9.994,20C7.343,20 4.801,18.947 2.927,17.073C1.053,15.199 0,12.657 0,10.006C0,10.005 0,10.005 0,10.004C0,7.351 1.054,4.806 2.93,2.93C4.806,1.054 7.351,0 10.004,0C10.019,0 10.034,0 10.048,0C15.545,0 20,4.455 20,9.952C20,14.968 20,20 20,20Z" style="fill:rgb(0,198,194);"/>
    <g id="icon_light" transform="matrix(0.462123,0.462123,-0.462123,0.462123,10.0001,1.74972)">
        <path d="M6.25,1.239C6.25,0.554 6.805,0 7.489,0L13.764,0C14.447,0 15,0.553 15,1.236L15,2.733C15,3.069 14.866,3.391 14.629,3.629C14.392,3.866 14.069,4 13.733,4L7.484,4C6.803,4 6.25,3.447 6.25,2.765L6.25,1.239Z" style="fill:white;fill-rule:nonzero;"/>
        <path d="M7.511,4.5C7.183,4.5 6.87,4.63 6.638,4.861C6.322,5.179 5.91,5.589 5.91,5.589C5.91,5.589 5.281,6.219 4.863,6.637C4.63,6.869 4.5,7.185 4.5,7.514L4.5,13.479C4.5,13.883 4.66,14.27 4.945,14.555C5.231,14.84 5.617,15 6.021,15L13.022,15C14.115,15 15,14.115 15,13.022L15,5.731C15,5.051 14.449,4.5 13.769,4.5L7.511,4.5Z" style="fill:white;fill-rule:nonzero;"/>
        <path d="M2.759,6.25C3.444,6.25 4,6.805 4,7.49L4,13.771C4,14.098 3.87,14.41 3.64,14.641C3.409,14.871 3.097,15 2.772,15L1.247,15C0.917,15 0.599,14.869 0.365,14.635C0.131,14.4 0,14.083 0,13.752L0,7.524C0,7.187 0.134,6.862 0.373,6.624C0.612,6.384 0.936,6.25 1.274,6.25L2.759,6.25Z" style="fill:rgb(23,37,44);fill-rule:nonzero;"/>
        <path d="M4.5,9.5L7,9.5L7,8.759C7,8.433 7.129,8.121 7.36,7.89C7.722,7.528 8.278,6.973 8.64,6.61C8.87,6.379 9.184,6.25 9.51,6.25L15.486,6.25C16.046,6.25 16.5,6.704 16.5,7.264L16.5,7.265C16.5,7.526 16.396,7.776 16.211,7.961C16.027,8.146 15.776,8.25 15.516,8.25L14.1,8.25L14.1,8.5L15.496,8.5C16.051,8.5 16.5,8.949 16.5,9.504L16.5,9.505C16.5,10.055 16.055,10.5 15.505,10.5L14.1,10.5L14.1,10.75L15.52,10.75C15.779,10.75 16.029,10.854 16.213,11.037C16.396,11.221 16.5,11.471 16.5,11.73L16.5,11.768C16.5,12.027 16.396,12.277 16.213,12.463C16.027,12.646 15.778,12.75 15.518,12.75L14.1,12.75L14.1,13L15.51,13C16.057,13 16.5,13.443 16.5,13.99L16.5,13.992C16.5,14.549 16.049,15 15.491,15L5.748,15C5.059,15 4.5,14.441 4.5,13.752L4.5,9.5Z" style="fill:rgb(23,37,44);fill-rule:nonzero;"/>
        <path d="M8.25,13.481C8.25,12.939 7.811,12.5 7.269,12.5L7.268,12.5C6.706,12.5 6.25,12.955 6.25,13.518L6.25,15.51C6.25,16.057 6.693,16.501 7.239,16.501L7.259,16.501C7.807,16.501 8.25,16.057 8.25,15.51L8.25,13.481Z" style="fill:white;fill-rule:nonzero;"/>
        <path d="M10.5,13.508C10.5,12.951 10.049,12.5 9.492,12.5L9.488,12.5C9.227,12.5 8.975,12.604 8.79,12.789C8.604,12.975 8.5,13.227 8.5,13.488L8.5,15.504C8.5,16.055 8.946,16.5 9.496,16.5L9.518,16.5C9.777,16.5 10.027,16.397 10.212,16.212C10.396,16.028 10.5,15.778 10.5,15.518L10.5,13.508Z" style="fill:white;fill-rule:nonzero;"/>
        <path d="M12.75,13.5C12.75,12.947 12.303,12.5 11.75,12.5L11.749,12.5C11.484,12.5 11.23,12.605 11.043,12.793C10.855,12.98 10.75,13.234 10.75,13.499L10.75,15.498C10.75,16.051 11.199,16.5 11.752,16.5L11.753,16.5C12.304,16.5 12.75,16.054 12.75,15.503L12.75,13.5Z" style="fill:white;fill-rule:nonzero;"/>
        <path d="M15,13.482C15,12.939 14.561,12.5 14.018,12.5L14.016,12.5C13.746,12.5 13.488,12.607 13.298,12.797C13.107,12.988 13,13.246 13,13.515L13,15.505C13,16.054 13.445,16.5 13.995,16.5L14.02,16.5C14.561,16.5 15,16.06 15,15.519L15,13.482Z" style="fill:white;fill-rule:nonzero;"/>
        <path d="M7,8.115C7,7.853 6.896,7.601 6.71,7.415C6.524,7.23 6.273,7.125 6.01,7.125L5.513,7.125C4.953,7.125 4.5,7.578 4.5,8.137L4.5,9.737C4.5,10.006 4.607,10.264 4.797,10.453C4.987,10.644 5.244,10.75 5.513,10.75L6.023,10.75C6.563,10.75 7,10.313 7,9.774L7,8.115Z" style="fill:white;fill-rule:nonzero;"/>
    </g>
    <g id="text" transform="matrix(1,0,0,1,-0.0648759,0)">
        <g transform="matrix(0.930686,0,0,1,-8.60726,3.52475)">
            <path d="M34.578,13.285L32.527,4.695L34.302,4.695L35.597,10.596L37.167,4.695L39.23,4.695L40.736,10.695L42.054,4.695L43.8,4.695L41.714,13.285L39.874,13.285L38.164,6.863L36.458,13.285L34.578,13.285Z" style="fill:rgb(0,198,194);fill-rule:nonzero;"/>
            <path d="M44.691,13.285L44.691,4.695L46.425,4.695L46.425,8.076L49.824,8.076L49.824,4.695L51.558,4.695L51.558,13.285L49.824,13.285L49.824,9.529L46.425,9.529L46.425,13.285L44.691,13.285Z" style="fill:rgb(0,198,194);fill-rule:nonzero;"/>
            <path d="M53.351,13.285L53.351,4.695L59.72,4.695L59.72,6.149L55.085,6.149L55.085,8.053L59.398,8.053L59.398,9.5L55.085,9.5L55.085,11.838L59.884,11.838L59.884,13.285L53.351,13.285Z" style="fill:rgb(0,198,194);fill-rule:nonzero;"/>
            <path d="M61.361,13.285L61.361,4.695L65.011,4.695C65.929,4.695 66.596,4.773 67.012,4.927C67.428,5.081 67.761,5.356 68.011,5.75C68.261,6.145 68.386,6.596 68.386,7.104C68.386,7.748 68.197,8.28 67.818,8.7C67.439,9.12 66.873,9.385 66.119,9.494C66.494,9.713 66.803,9.953 67.047,10.215C67.291,10.477 67.621,10.942 68.035,11.61L69.083,13.285L67.009,13.285L65.755,11.416C65.31,10.748 65.005,10.327 64.841,10.153C64.677,9.98 64.503,9.86 64.32,9.796C64.136,9.732 63.845,9.699 63.447,9.699L63.095,9.699L63.095,13.285L61.361,13.285ZM63.095,8.328L64.378,8.328C65.21,8.328 65.73,8.293 65.937,8.223C66.144,8.152 66.306,8.031 66.423,7.86C66.54,7.688 66.599,7.473 66.599,7.215C66.599,6.926 66.522,6.693 66.368,6.515C66.213,6.337 65.996,6.225 65.714,6.178C65.574,6.158 65.152,6.149 64.449,6.149L63.095,6.149L63.095,8.328Z" style="fill:rgb(0,198,194);fill-rule:nonzero;"/>
            <path d="M70.021,13.285L70.021,4.695L76.39,4.695L76.39,6.149L71.755,6.149L71.755,8.053L76.068,8.053L76.068,9.5L71.755,9.5L71.755,11.838L76.554,11.838L76.554,13.285L70.021,13.285Z" style="fill:rgb(0,198,194);fill-rule:nonzero;"/>
        </g>
        <g transform="matrix(0.910165,0,0,1,41.8699,3.52475)">
            <path d="M33.365,13.285L33.365,4.695L35.099,4.695L35.099,8.076L38.498,8.076L38.498,4.695L40.232,4.695L40.232,13.285L38.498,13.285L38.498,9.529L35.099,9.529L35.099,13.285L33.365,13.285Z" style="fill:rgb(0,198,194);fill-rule:nonzero;"/>
            <path d="M42.025,13.285L42.025,4.695L48.394,4.695L48.394,6.149L43.759,6.149L43.759,8.053L48.072,8.053L48.072,9.5L43.759,9.5L43.759,11.838L48.558,11.838L48.558,13.285L42.025,13.285Z" style="fill:rgb(0,198,194);fill-rule:nonzero;"/>
            <path d="M50.076,13.285L50.076,4.766L51.81,4.766L51.81,11.838L56.123,11.838L56.123,13.285L50.076,13.285Z" style="fill:rgb(0,198,194);fill-rule:nonzero;"/>
            <path d="M57.359,13.285L57.359,4.695L60.142,4.695C61.197,4.695 61.884,4.738 62.205,4.824C62.697,4.953 63.109,5.234 63.441,5.665C63.773,6.097 63.939,6.654 63.939,7.338C63.939,7.865 63.843,8.309 63.652,8.668C63.46,9.027 63.217,9.31 62.922,9.515C62.627,9.72 62.328,9.856 62.023,9.922C61.609,10.004 61.009,10.045 60.224,10.045L59.093,10.045L59.093,13.285L57.359,13.285ZM59.093,6.149L59.093,8.586L60.042,8.586C60.726,8.586 61.183,8.541 61.414,8.451C61.644,8.361 61.825,8.221 61.956,8.029C62.086,7.838 62.152,7.615 62.152,7.361C62.152,7.049 62.06,6.791 61.876,6.588C61.693,6.385 61.46,6.258 61.179,6.207C60.972,6.168 60.556,6.149 59.931,6.149L59.093,6.149Z" style="fill:rgb(0,198,194);fill-rule:nonzero;"/>
        </g>
        <g transform="matrix(1.34131,0,0,1.35855,-26.755,-1.65836)">
            <path d="M72.711,13.594L72.711,12.37L69.507,12.37L69.507,12.346L70.191,11.758C71.547,10.498 72.531,9.394 72.531,8.026C72.531,6.754 71.691,5.662 69.963,5.662C68.979,5.662 68.127,6.01 67.563,6.466L67.995,7.51C68.391,7.21 68.979,6.862 69.663,6.862C70.683,6.862 71.055,7.474 71.055,8.17C71.043,9.202 70.179,10.138 68.343,11.842L67.419,12.694L67.419,13.594L72.711,13.594Z" style="fill:rgb(243,239,224);fill-rule:nonzero;"/>
        </g>
    </g>
</svg>
