<svg xmlns="http://www.w3.org/2000/svg" width="1312.665" height="256"><path fill="#00C6D2" d="M256 256H127.923a127.926 127.926 0 0 1-90.458-37.466A127.927 127.927 0 0 1 0 128.077v-.026a128.061 128.061 0 0 1 37.504-90.547A128.061 128.061 0 0 1 128.051 0h.563C198.976 0 256 57.024 256 127.386V256z"/><path fill="#17252C" d="M157.642 66.695c4.052-4.051 10.612-4.046 14.658 0l37.118 37.118a10.337 10.337 0 0 1 0 14.623l-8.855 8.854a10.63 10.63 0 0 1-7.493 3.106 10.611 10.611 0 0 1-7.494-3.106l-36.964-36.964c-4.028-4.028-4.028-10.57.006-14.604l9.026-9.026-.002-.001zM145.812 93.444a10.337 10.337 0 0 0-7.299-3.028c-3.75.012-8.613 0-8.613 0s-7.447.006-12.392.006a10.351 10.351 0 0 0-7.334 3.041l-35.285 35.283a12.725 12.725 0 0 0-3.732 8.997 12.743 12.743 0 0 0 3.732 8.997l41.412 41.412c6.466 6.466 16.935 6.466 23.4 0l43.127-43.128c4.022-4.021 4.022-10.54 0-14.562l-37.016-37.018z"/><path fill="#FFF" d="M107.352 75.687c4.052 4.052 4.057 10.624.006 14.675l-37.153 37.153a10.307 10.307 0 0 1-7.276 3.017 10.29 10.29 0 0 1-7.258-3.011L46.65 118.5a10.436 10.436 0 0 1-3.058-7.376 10.462 10.462 0 0 1 3.064-7.382l36.84-36.84a10.641 10.641 0 0 1 7.53-3.118 10.627 10.627 0 0 1 7.542 3.118l8.784 8.785zM98.425 105.209l14.788 14.788 4.383-4.384a10.266 10.266 0 0 1 7.27-3.011c4.283 0 10.854.005 15.143 0a10.273 10.273 0 0 1 7.275 3.017l35.349 35.349a8.484 8.484 0 0 1 0 11.996l-.006.006a8.23 8.23 0 0 1-5.827 2.407 8.21 8.21 0 0 1-5.821-2.402l-8.376-8.375-1.478 1.479 8.257 8.257a8.394 8.394 0 0 1 0 11.879l-.006.006a8.318 8.318 0 0 1-11.771 0l-8.312-8.311-1.478 1.479 8.4 8.399a8.24 8.24 0 0 1 2.401 5.797 8.249 8.249 0 0 1-2.401 5.797l-.225.226a8.31 8.31 0 0 1-5.809 2.412 8.291 8.291 0 0 1-5.808-2.411l-8.388-8.389-1.479 1.479 8.34 8.342a8.276 8.276 0 0 1 0 11.71l-.013.012a8.43 8.43 0 0 1-11.931-.006L73.27 145.126c-4.075-4.077-4.075-10.689 0-14.765l25.155-25.152z"/><path fill="#17252C" d="M97.059 150.939a8.203 8.203 0 0 0 0-11.605l-.006-.008a8.512 8.512 0 0 0-12.043 0l-11.783 11.783c-3.235 3.236-3.242 8.481-.012 11.713l.118.119a8.291 8.291 0 0 0 11.724 0l12.002-12.004v.002zM110.208 164.408a8.429 8.429 0 0 0 0-11.925l-.023-.024a8.267 8.267 0 0 0-11.688 0l-11.925 11.926a8.327 8.327 0 0 0 0 11.783l.13.131a8.224 8.224 0 0 0 11.618 0l11.888-11.891zM123.565 177.67a8.357 8.357 0 0 0 0-11.83l-.005-.006a8.32 8.32 0 0 0-5.909-2.443 8.324 8.324 0 0 0-5.91 2.443l-11.824 11.824c-3.271 3.271-3.271 8.584 0 11.854l.006.006a8.335 8.335 0 0 0 11.795 0l11.847-11.848zM136.98 190.871a8.206 8.206 0 0 0 0-11.616l-.012-.012a8.486 8.486 0 0 0-6.004-2.489c-2.26 0-4.419.893-6.009 2.484l-11.771 11.771a8.324 8.324 0 0 0 0 11.77l.147.15c3.2 3.199 8.401 3.193 11.601-.007l12.048-12.051zM121.405 111.805a8.288 8.288 0 0 0 2.426-5.856 8.304 8.304 0 0 0-2.426-5.856l-2.94-2.939c-3.312-3.312-8.671-3.312-11.977-.006l-9.465 9.463a8.457 8.457 0 0 0-2.479 5.993 8.432 8.432 0 0 0 2.479 5.992l3.017 3.017c3.194 3.194 8.365 3.195 11.553.006l9.812-9.814z"/><path fill="#FFF" d="M923.297 215.165h-94.814v-19.946l34.049-34.419c10.08-10.327 16.666-17.487 19.76-21.477 3.092-3.99 5.318-7.685 6.68-11.087a28.247 28.247 0 0 0 2.041-10.576c0-5.441-1.5-9.493-4.5-12.153-3-2.658-7.004-3.989-12.014-3.989-5.258 0-10.359 1.206-15.307 3.618-4.949 2.412-10.113 5.845-15.494 10.298l-15.586-18.462c6.68-5.689 12.215-9.709 16.607-12.061 4.391-2.35 9.184-4.159 14.379-5.428 5.195-1.267 11.008-1.901 17.441-1.901 8.473 0 15.957 1.547 22.451 4.639 6.494 3.094 11.535 7.422 15.123 12.988 3.586 5.566 5.381 11.938 5.381 19.111 0 6.248-1.1 12.106-3.295 17.581-2.195 5.474-5.6 11.086-10.205 16.838-4.607 5.753-12.725 13.949-24.354 24.586l-17.439 16.421v1.299h59.096v24.12z"/><g fill="#00C6D2"><path d="M398.183 215.165h-26.716l-14.985-58.125c-.556-2.067-1.502-6.345-2.838-12.828-1.337-6.483-2.107-10.835-2.308-13.056-.303 2.725-1.06 7.103-2.271 13.131-1.211 6.029-2.145 10.331-2.8 12.904l-14.91 57.974h-26.641l-28.23-110.649h23.083l14.153 60.396c2.472 11.15 4.263 20.812 5.374 28.986.303-2.875.996-7.328 2.082-13.357 1.084-6.029 2.106-10.709 3.065-14.039l16.121-61.985h22.175l16.121 61.985c.706 2.775 1.589 7.014 2.649 12.715 1.06 5.702 1.866 10.596 2.422 14.682.504-3.936 1.312-8.842 2.422-14.72 1.109-5.878 2.119-10.634 3.027-14.267l14.077-60.396h23.083l-28.155 110.649zM530.932 215.165h-23.386v-47.756h-43.821v47.756h-23.462V104.516h23.462v43.366h43.821v-43.366h23.386v110.649zM622.584 215.165h-63.726V104.516h63.726v19.224H582.32v24.295h37.464v19.223H582.32v28.533h40.264v19.374zM669.129 172.706v42.459h-23.461V104.516h32.241c15.035 0 26.16 2.737 33.377 8.212 7.215 5.475 10.822 13.787 10.822 24.938 0 6.509-1.791 12.299-5.373 17.369-3.584 5.07-8.654 9.045-15.213 11.92 16.648 24.876 27.498 40.945 32.545 48.211h-26.035l-26.414-42.459-12.489-.001zm0-19.072h7.568c7.418 0 12.891-1.235 16.424-3.708 3.531-2.472 5.299-6.357 5.299-11.654 0-5.248-1.805-8.98-5.412-11.202-3.607-2.22-9.195-3.33-16.764-3.33h-7.115v29.894zM811.717 215.165h-63.725V104.516h63.725v19.224h-40.264v24.295h37.465v19.223h-37.465v28.533h40.264v19.374zM1033.922 215.165h-23.387v-47.756h-43.82v47.756h-23.463V104.516h23.463v43.366h43.82v-43.366h23.387v110.649zM1125.575 215.165h-63.725V104.516h63.725v19.224h-40.264v24.295h37.465v19.223h-37.465v28.533h40.264v19.374zM1148.659 215.165V104.516h23.463v91.274H1217v19.375h-68.341zM1312.665 139.027c0 11.908-3.721 21.016-11.162 27.32-7.441 6.31-18.025 9.461-31.75 9.461h-10.064v39.355h-23.463V104.516h35.346c13.42 0 23.625 2.889 30.611 8.666 6.987 5.777 10.482 14.392 10.482 25.845zm-52.979 17.559h7.721c7.215 0 12.613-1.425 16.195-4.275s5.375-7 5.375-12.449c0-5.5-1.502-9.562-4.504-12.187-3.002-2.623-7.709-3.936-14.115-3.936h-10.672v32.847z"/></g></svg>