<?xml version="1.0" encoding="utf-8"?>
<!-- Generator: Adobe Illustrator 24.1.0, SVG Export Plug-In . SVG Version: 6.00 Build 0)  -->
<svg version="1.1" id="Ebene_1" xmlns="http://www.w3.org/2000/svg" xmlns:xlink="http://www.w3.org/1999/xlink" x="0px" y="0px"
	 viewBox="0 0 271.5 271.5" style="enable-background:new 0 0 271.5 271.5;" xml:space="preserve">
<style type="text/css">
	.st0{fill:#3C141E;}
	.st1{fill:#C32D3C;}
	.st2{fill:#FFFFFF;}
</style>
<path class="st0" d="M261.4,264.2H133.3c-33.9,0-66.5-13.5-90.5-37.5c-24-24-37.5-56.5-37.5-90.5v0c0-34,13.5-66.5,37.5-90.5
	c24-24,56.6-37.5,90.5-37.5h0.6c70.4,0,127.4,57,127.4,127.4V264.2z"/>
<path class="st1" d="M163,74.9c4.1-4.1,10.6-4,14.7,0l37.1,37.1c4,4,4,10.6,0,14.6c0,0,0,0,0,0l-8.9,8.9c-2,2-4.7,3.1-7.5,3.1
	c-2.8,0-5.5-1.1-7.5-3.1l-37-37c-4-4-4-10.6,0-14.6L163,74.9L163,74.9z M151.2,101.6c-1.9-1.9-4.6-3-7.3-3c-3.8,0-8.6,0-8.6,0
	s-7.4,0-12.4,0c-2.8,0-5.4,1.1-7.3,3l-35.3,35.3c-2.4,2.4-3.7,5.6-3.7,9c0,3.4,1.3,6.6,3.7,9l41.4,41.4c6.5,6.5,16.9,6.5,23.4,0
	l43.1-43.1c4-4,4-10.5,0-14.6L151.2,101.6L151.2,101.6z"/>
<path class="st2" d="M112.7,83.9c4.1,4.1,4.1,10.6,0,14.7l-37.2,37.2c-1.9,1.9-4.5,3-7.3,3c-2.7,0-5.3-1.1-7.3-3l-9-9
	c-2-2-3.1-4.6-3.1-7.4c0-2.8,1.1-5.4,3.1-7.4l36.8-36.8c2-2,4.7-3.1,7.5-3.1c2.8,0,5.5,1.1,7.5,3.1L112.7,83.9L112.7,83.9z
	 M103.8,113.4l14.8,14.8l4.4-4.4c1.9-1.9,4.5-3,7.3-3c4.3,0,10.9,0,15.1,0c2.7,0,5.3,1.1,7.3,3l35.3,35.3c3.3,3.3,3.3,8.7,0,12l0,0
	c-1.5,1.5-3.6,2.4-5.8,2.4c-2.2,0-4.3-0.9-5.8-2.4l-8.4-8.4l-1.5,1.5l8.3,8.3c3.3,3.3,3.3,8.6,0,11.9c0,0,0,0,0,0l0,0
	c-3.2,3.3-8.5,3.3-11.8,0c0,0,0,0,0,0l-8.3-8.3l-1.5,1.5l8.4,8.4c1.5,1.5,2.4,3.6,2.4,5.8c0,2.2-0.9,4.3-2.4,5.8l-0.2,0.2
	c-1.5,1.5-3.6,2.4-5.8,2.4c-2.2,0-4.3-0.9-5.8-2.4l-8.4-8.4l-1.5,1.5l8.3,8.3c3.2,3.2,3.2,8.5,0,11.7c0,0,0,0,0,0l0,0
	c-3.3,3.3-8.6,3.3-11.9,0c0,0,0,0,0,0l-57.6-57.6c-4.1-4.1-4.1-10.7,0-14.8C78.6,138.5,103.8,113.4,103.8,113.4z"/>
<path class="st1" d="M102.4,159.1c3.2-3.2,3.2-8.4,0-11.6c0,0,0,0,0,0l0,0c-3.3-3.3-8.7-3.3-12,0c0,0,0,0,0,0l-11.8,11.8
	c-3.2,3.2-3.2,8.5,0,11.7l0.1,0.1c3.2,3.2,8.5,3.2,11.7,0L102.4,159.1L102.4,159.1L102.4,159.1z M115.6,172.6
	c3.3-3.3,3.3-8.6,0-11.9c0,0,0,0,0,0l0,0c-3.2-3.2-8.5-3.2-11.7,0l-11.9,11.9c-3.3,3.2-3.3,8.5,0,11.8c0,0,0,0,0,0l0.1,0.1
	c3.2,3.2,8.4,3.2,11.6,0L115.6,172.6L115.6,172.6z M128.9,185.9c3.3-3.3,3.3-8.6,0-11.8c0,0,0,0,0,0l0,0c-1.6-1.6-3.7-2.4-5.9-2.4
	c-2.2,0-4.3,0.9-5.9,2.4l-11.8,11.8c-3.3,3.3-3.3,8.6,0,11.9l0,0c3.3,3.3,8.5,3.3,11.8,0c0,0,0,0,0,0L128.9,185.9L128.9,185.9z
	 M142.4,199.1c3.2-3.2,3.2-8.4,0-11.6c0,0,0,0,0,0l0,0c-1.6-1.6-3.8-2.5-6-2.5c-2.3,0-4.4,0.9-6,2.5l-11.8,11.8
	c-3.2,3.3-3.2,8.5,0,11.8l0.1,0.1c3.2,3.2,8.4,3.2,11.6,0L142.4,199.1L142.4,199.1z M126.8,120c1.6-1.6,2.4-3.7,2.4-5.9
	c0-2.2-0.9-4.3-2.4-5.9l-2.9-2.9c-3.3-3.3-8.7-3.3-12,0l-9.5,9.5c-1.6,1.6-2.5,3.7-2.5,6c0,2.2,0.9,4.4,2.5,6l3,3
	c3.2,3.2,8.4,3.2,11.6,0L126.8,120L126.8,120z"/>
</svg>
