<?xml version="1.0" encoding="utf-8"?>
<!-- Generator: Adobe Illustrator 16.0.0, SVG Export Plug-In . SVG Version: 6.00 Build 0)  -->
<!DOCTYPE svg PUBLIC "-//W3C//DTD SVG 1.1//EN" "http://www.w3.org/Graphics/SVG/1.1/DTD/svg11.dtd">
<svg version="1.1" id="Layer_1" xmlns="http://www.w3.org/2000/svg" xmlns:xlink="http://www.w3.org/1999/xlink" x="0px" y="0px"
	 width="97.074px" height="21px" viewBox="0 0 97.074 21" enable-background="new 0 0 97.074 21" xml:space="preserve">
<circle fill="#9EE5E1" cx="10.5" cy="10.5" r="10.5"/>
<g>
	<path fill="#9EE5E1" d="M22.965,14.795v-8.59h2.285c0.852,0,1.408,0.041,1.67,0.123c0.418,0.133,0.763,0.416,1.034,0.85
		s0.407,0.992,0.407,1.676c0,0.621-0.117,1.142-0.352,1.562s-0.527,0.715-0.879,0.885s-0.957,0.255-1.816,0.255h-0.932v3.24H22.965z
		 M24.383,7.658v2.443h0.787c0.528,0,0.888-0.037,1.078-0.112c0.19-0.074,0.345-0.208,0.467-0.402
		c0.122-0.194,0.182-0.432,0.182-0.714c0-0.286-0.062-0.526-0.188-0.723c-0.125-0.195-0.28-0.327-0.464-0.393
		c-0.184-0.067-0.574-0.1-1.169-0.1H24.383z"/>
	<path fill="#9EE5E1" d="M29.568,14.795v-8.52h1.418v7.066h3.539v1.453H29.568z"/>
	<path fill="#9EE5E1" d="M41.896,14.795h-1.542l-0.617-1.945h-2.819l-0.583,1.945h-1.512l2.743-8.59h1.506L41.896,14.795z
		 M39.28,11.396l-0.973-3.188l-0.954,3.188H39.28z"/>
	<path fill="#9EE5E1" d="M47.152,11.637l1.377,0.533c-0.215,0.961-0.572,1.663-1.072,2.106s-1.115,0.665-1.846,0.665
		c-0.918,0-1.662-0.354-2.232-1.061c-0.656-0.816-0.984-1.918-0.984-3.305c0-1.465,0.33-2.611,0.991-3.439
		c0.575-0.719,1.347-1.078,2.317-1.078c0.79,0,1.45,0.27,1.982,0.809c0.379,0.383,0.657,0.951,0.833,1.705l-1.406,0.41
		c-0.09-0.465-0.269-0.821-0.537-1.069s-0.584-0.372-0.948-0.372c-0.521,0-0.945,0.227-1.274,0.68s-0.493,1.201-0.493,2.244
		c0,1.082,0.16,1.852,0.48,2.309s0.736,0.686,1.248,0.686c0.375,0,0.699-0.146,0.973-0.437S47.031,12.27,47.152,11.637z"/>
	<path fill="#9EE5E1" d="M49.748,14.795v-8.59h5.227v1.453h-3.809v1.904h3.539v1.447h-3.539v2.332h3.938v1.453H49.748z"/>
	<path fill="#9EE5E1" d="M56.311,14.795v-8.59h1.418v3.381h2.795V6.205h1.418v8.59h-1.418v-3.756h-2.795v3.756H56.311z"/>
	<path fill="#9EE5E1" d="M63.119,10.553c0-1.023,0.151-1.866,0.454-2.528s0.698-1.155,1.187-1.479s1.08-0.486,1.775-0.486
		c1.008,0,1.829,0.385,2.464,1.154s0.952,1.865,0.952,3.287c0,1.438-0.336,2.561-1.008,3.369c-0.59,0.715-1.391,1.072-2.402,1.072
		c-1.02,0-1.824-0.354-2.414-1.061C63.455,13.072,63.119,11.963,63.119,10.553z M64.584,10.494c0,0.988,0.188,1.729,0.563,2.224
		s0.841,0.741,1.396,0.741c0.56,0,1.023-0.245,1.391-0.735s0.552-1.243,0.552-2.259c0-0.996-0.179-1.732-0.537-2.209
		s-0.826-0.715-1.405-0.715s-1.05,0.24-1.414,0.721S64.584,9.486,64.584,10.494z"/>
	<path fill="#9EE5E1" d="M71.105,14.795v-8.52h1.418v7.066h3.539v1.453H71.105z"/>
	<path fill="#9EE5E1" d="M77.07,6.205h2.593c0.655,0,1.15,0.073,1.484,0.22c0.333,0.146,0.641,0.394,0.922,0.741
		c0.281,0.348,0.501,0.799,0.661,1.354c0.16,0.555,0.24,1.244,0.24,2.068c0,0.742-0.084,1.388-0.252,1.937
		c-0.167,0.549-0.38,0.983-0.638,1.304c-0.258,0.32-0.569,0.562-0.934,0.724c-0.365,0.162-0.834,0.243-1.408,0.243H77.07V6.205z
		 M78.488,7.658v5.684h1.066c0.457,0,0.788-0.043,0.993-0.129s0.373-0.215,0.504-0.389c0.131-0.173,0.239-0.448,0.325-0.822
		s0.129-0.868,0.129-1.481c0-0.636-0.044-1.138-0.132-1.504s-0.225-0.655-0.41-0.866s-0.411-0.349-0.677-0.416
		c-0.199-0.051-0.584-0.076-1.154-0.076H78.488z"/>
	<path fill="#9EE5E1" d="M84.184,14.795v-8.59h5.227v1.453h-3.809v1.904h3.539v1.447h-3.539v2.332h3.938v1.453H84.184z"/>
	<path fill="#9EE5E1" d="M90.746,14.795v-8.59h2.994c0.766,0,1.312,0.077,1.641,0.231s0.598,0.422,0.809,0.803
		s0.316,0.837,0.316,1.368c0,0.672-0.161,1.213-0.483,1.623s-0.78,0.668-1.374,0.773c0.305,0.219,0.557,0.458,0.756,0.718
		s0.471,0.726,0.814,1.397l0.855,1.676h-1.697l-1.029-1.869c-0.371-0.676-0.622-1.099-0.755-1.269s-0.273-0.287-0.422-0.352
		s-0.387-0.097-0.715-0.097h-0.293v3.586H90.746z M92.164,9.838h1.055c0.645,0,1.055-0.028,1.23-0.085s0.318-0.171,0.428-0.343
		s0.164-0.4,0.164-0.686c0-0.273-0.055-0.493-0.164-0.659s-0.258-0.28-0.445-0.343c-0.133-0.043-0.518-0.064-1.154-0.064h-1.113
		V9.838z"/>
</g>
</svg>
