<?xml version="1.0" standalone="no"?>
<!DOCTYPE svg PUBLIC "-//W3C//DTD SVG 1.1//EN" "http://www.w3.org/Graphics/SVG/1.1/DTD/svg11.dtd">
<svg width="100%" height="100%" viewBox="0 0 20 20" version="1.1" xmlns="http://www.w3.org/2000/svg" xmlns:xlink="http://www.w3.org/1999/xlink" xml:space="preserve" style="fill-rule:evenodd;clip-rule:evenodd;stroke-linecap:round;stroke-linejoin:round;stroke-miterlimit:1.41421;">
    <g transform="matrix(1,0,0,1,-4.11465,5.86168)">
        <path d="M11.901,3.572C11.901,3.122 12.171,2.726 12.621,2.438C13.179,2.726 14.169,3.05 14.907,3.338C15.915,3.698 16.311,4.202 16.311,4.796C16.311,5.246 16.095,5.678 15.717,5.93C15.303,5.696 14.493,5.426 13.629,5.12C12.387,4.688 11.901,4.202 11.901,3.572ZM17.211,-1.936C16.473,-2.296 15.555,-2.494 14.529,-2.494C12.495,-2.494 10.875,-1.522 10.875,0.206C10.893,0.854 11.199,1.484 11.577,1.772C10.587,2.33 10.155,3.194 10.155,3.932C10.155,5.624 11.649,6.308 13.539,6.92C15.033,7.424 15.573,7.802 15.573,8.504C15.573,9.278 14.817,9.674 13.773,9.674C12.693,9.674 11.685,9.242 11.199,8.936L10.713,10.304C11.559,10.862 12.747,11.096 13.845,11.096C15.519,11.096 17.589,10.34 17.589,8.288C17.589,7.514 17.157,6.92 16.833,6.65C17.589,6.128 18.075,5.426 18.075,4.472C18.075,2.726 16.689,2.024 14.871,1.466C13.557,1.052 12.801,0.71 12.801,-0.01C12.801,-0.658 13.485,-1.09 14.529,-1.09C15.555,-1.09 16.311,-0.82 16.815,-0.55L17.211,-1.936Z" style="fill:none;stroke-width:0.5px;stroke:rgb(110,201,198);"/>
    </g>
    <path d="M20,20C20,20 14.996,20 9.994,20C7.343,20 4.801,18.947 2.927,17.073C1.053,15.199 0,12.657 0,10.006C0,10.005 0,10.005 0,10.004C0,7.351 1.054,4.806 2.93,2.93C4.806,1.054 7.351,0 10.004,0C10.019,0 10.034,0 10.048,0C15.545,0 20,4.455 20,9.952C20,14.968 20,20 20,20ZM13.096,3.926C12.358,3.566 11.44,3.368 10.414,3.368C8.38,3.368 6.76,4.34 6.76,6.068C6.778,6.716 7.084,7.346 7.462,7.634C6.472,8.192 6.04,9.056 6.04,9.794C6.04,11.486 7.534,12.17 9.424,12.782C10.918,13.286 11.458,13.664 11.458,14.366C11.458,15.14 10.702,15.536 9.658,15.536C8.578,15.536 7.57,15.104 7.084,14.798L6.598,16.166C7.444,16.724 8.632,16.958 9.73,16.958C11.404,16.958 13.474,16.202 13.474,14.15C13.474,13.376 13.042,12.782 12.718,12.512C13.474,11.99 13.96,11.288 13.96,10.334C13.96,8.588 12.574,7.886 10.756,7.328C9.442,6.914 8.686,6.572 8.686,5.852C8.686,5.204 9.37,4.772 10.414,4.772C11.44,4.772 12.196,5.042 12.7,5.312L13.096,3.926ZM7.786,9.434C7.786,8.984 8.056,8.588 8.506,8.3C9.064,8.588 10.054,8.912 10.792,9.2C11.8,9.56 12.196,10.064 12.196,10.658C12.196,11.108 11.98,11.54 11.602,11.792C11.188,11.558 10.378,11.288 9.514,10.982C8.272,10.55 7.786,10.064 7.786,9.434Z" style="fill:rgb(23,37,44);"/>
</svg>
