<?xml version="1.0" standalone="no"?>
<!DOCTYPE svg PUBLIC "-//W3C//DTD SVG 1.1//EN" "http://www.w3.org/Graphics/SVG/1.1/DTD/svg11.dtd">
<svg width="100%" height="100%" viewBox="0 0 20 20" version="1.1" xmlns="http://www.w3.org/2000/svg" xmlns:xlink="http://www.w3.org/1999/xlink" xml:space="preserve" style="fill-rule:evenodd;clip-rule:evenodd;stroke-linecap:square;stroke-linejoin:round;stroke-miterlimit:1.41421;">
    <path d="M20,20C20,20 14.996,20 9.994,20C7.343,20 4.801,18.947 2.927,17.073C1.053,15.199 0,12.657 0,10.006C0,10.005 0,10.005 0,10.004C0,7.351 1.054,4.806 2.93,2.93C4.806,1.054 7.351,0 10.004,0C10.019,0 10.034,0 10.048,0C15.545,0 20,4.455 20,9.952C20,14.968 20,20 20,20ZM4,8L4,12L8,12L8,16L12,16L12,12L16,12L16,8L12,8L12,4L8,4L8,8L4,8Z" style="fill:rgb(23,37,44);"/>
    <path d="M4,8L4,12L8,12L8,16L12,16L12,12L16,12L16,8L12,8L12,4L8,4L8,8L4,8Z" style="fill:none;stroke-width:0.5px;stroke:rgb(110,201,198);"/>
</svg>
