<?xml version="1.0" standalone="no"?>
<!DOCTYPE svg PUBLIC "-//W3C//DTD SVG 1.1//EN" "http://www.w3.org/Graphics/SVG/1.1/DTD/svg11.dtd">
<svg width="100%" height="100%" viewBox="0 0 20 20" version="1.1" xmlns="http://www.w3.org/2000/svg" xmlns:xlink="http://www.w3.org/1999/xlink" xml:space="preserve" style="fill-rule:evenodd;clip-rule:evenodd;stroke-linejoin:round;stroke-miterlimit:1.41421;">
    <path d="M20,20C20,20 14.996,20 9.994,20C7.343,20 4.801,18.947 2.927,17.073C1.053,15.199 0,12.657 0,10.006C0,10.005 0,10.005 0,10.004C0,7.351 1.054,4.806 2.93,2.93C4.806,1.054 7.351,0 10.004,0C10.019,0 10.034,0 10.048,0C15.545,0 20,4.455 20,9.952C20,14.968 20,20 20,20ZM16,8.437C16,7.092 14.908,6 13.563,6L6.437,6C5.092,6 4,7.092 4,8.437L4,11.555C4,12.9 5.092,13.992 6.437,13.992L9.996,13.992L12.996,16L13.002,13.992L13.563,13.992C14.908,13.992 16,12.9 16,11.555L16,8.437Z" style="fill:rgb(23,37,44);"/>
    <g id="(Rechteckige Sprechblase)" transform="matrix(1,0,0,0.909091,4.96847e-11,2.36364)">
        <path d="M16,6.681C16,5.201 14.908,4 13.563,4L6.437,4C5.092,4 4,5.201 4,6.681L4,10.11C4,11.59 5.092,12.791 6.437,12.791L9.996,12.791L12.996,15L13.002,12.791L13.563,12.791C14.908,12.791 16,11.59 16,10.11L16,6.681Z" style="fill:none;stroke-width:0.52px;stroke:rgb(110,201,198);"/>
    </g>
    <g transform="matrix(0.0183246,0,-7.44321e-34,0.0183246,3.32479,1.50111)">
        <path d="M140.238,446.075C140.238,446.075 175.448,449.273 179.393,461.563C163.587,461.773 134.799,464.717 140.238,446.075ZM288.867,366.025C288.867,366.025 261.872,345.894 177.983,351.625C157.111,363.588 149.674,335.942 171.752,334.887C193.83,333.832 241.437,335.135 249.181,336.092C256.926,337.049 324.382,356.942 321.608,367.6C324.25,394.78 185.24,380.687 147.433,429.073C147.236,429.239 208.337,437.006 194.697,469.2C189.917,486.346 118.986,482.523 124.544,444.326C116.8,441.554 112.188,447.298 111.307,454.987C110.427,462.675 106.729,487.017 108.665,503.623C110.6,520.23 125.663,569.229 126.708,588.99C127.753,608.752 112.036,602.847 110.905,589.719C109.774,576.591 93.046,508.102 93.046,508.102C93.046,508.102 79.535,418.987 130.375,428.056C145.28,391.906 238.127,374.392 288.867,366.025Z" style="fill:rgb(23,37,44);"/>
        <g transform="matrix(1,0,0,1,12.1172,-49.0635)">
            <circle cx="248.543" cy="494.273" r="17.423" style="fill:rgb(23,37,44);"/>
        </g>
        <g transform="matrix(0.906252,0,0,0.906252,191.36,-97.6515)">
            <circle cx="248.543" cy="494.273" r="17.423" style="fill:rgb(23,37,44);"/>
        </g>
        <g transform="matrix(0.845831,0,0,0.845831,259.915,-77.5055)">
            <circle cx="248.543" cy="494.273" r="17.423" style="fill:rgb(23,37,44);"/>
        </g>
        <path d="M307.19,597.165C301.802,602.132 279.141,598.329 299.022,576.751C312.597,565.331 362.051,561.23 391.198,528.308C420.346,495.386 405.268,446.69 410.435,427.787C415.602,408.883 432.271,415.808 439.546,430.762C456.729,435.971 465.812,425.758 466.932,421.245C468.052,416.731 468.598,395.598 487.587,408.334C493.111,415.87 494.743,427.781 502.172,427.787C521.27,428.302 531.933,435.956 597.669,393.571C616.954,389.644 636.551,389.384 637.128,420.709C637.716,461.059 584.523,468.029 571.242,429.494C554.981,438.109 516.698,458.408 482.938,437.579C471.887,450.956 467.982,453.513 433.951,452.372C450.053,564.675 316.207,595.085 307.19,597.165ZM617.907,433.253L618.394,410.839C618.394,410.839 605.161,405.219 594.493,414.25C583.826,423.281 593.082,440.71 617.907,433.253Z" style="fill:rgb(23,37,44);"/>
    </g>
</svg>
